{"glyphs":{"0":{"ha":644,"x_min":0,"x_max":0,"o":"m 324 -12 b 532 40 436 -12 496 3 b 607 546 585 94 607 208 b 528 1050 607 882 583 996 b 324 1104 490 1089 432 1104 b 119 1050 215 1104 156 1089 b 38 546 64 994 38 879 b 114 40 38 210 61 96 b 324 -12 151 3 211 -12 z m 322 149 b 257 171 292 149 272 156 b 224 546 232 197 224 285 b 258 921 224 806 232 894 b 322 943 274 936 293 943 b 388 919 353 943 372 936 b 421 546 413 896 421 806 b 388 171 421 285 414 197 b 322 149 372 156 353 149 z "},"1":{"ha":476,"x_min":0,"x_max":0,"o":"m 261 -1 b 400 -1 308 -4 354 -4 b 421 21 415 0 421 6 l 424 1069 b 403 1092 424 1085 418 1092 l 272 1092 b 242 1081 261 1092 250 1088 l 33 928 b 28 899 21 919 19 911 l 92 810 b 121 806 100 797 108 796 l 228 882 b 243 874 238 889 243 886 l 240 21 b 261 -1 240 6 246 0 z "},"2":{"ha":590,"x_min":0,"x_max":0,"o":"m 61 0 b 546 0 193 -1 406 -1 b 567 21 561 0 567 6 l 567 149 b 546 168 567 164 561 169 l 240 165 b 224 181 229 165 224 169 b 258 321 221 257 235 292 b 357 410 275 342 313 372 b 494 532 431 472 467 500 b 563 789 542 585 561 646 b 494 1056 564 925 540 1010 b 297 1103 458 1088 399 1103 b 100 1050 196 1103 135 1086 b 21 740 51 1000 32 915 b 40 719 21 725 25 719 l 183 719 b 206 740 199 721 204 726 b 239 925 214 864 221 907 b 296 942 253 939 272 942 b 354 924 322 942 342 935 b 378 801 369 908 378 871 b 347 657 378 725 367 683 b 247 563 332 638 299 604 b 119 450 188 513 150 483 b 38 182 57 381 38 321 l 40 21 b 61 0 40 6 46 0 z "},"3":{"ha":611,"x_min":0,"x_max":0,"o":"m 299 -15 b 511 33 418 -15 479 1 b 576 306 554 76 576 160 b 511 563 576 482 557 522 b 478 601 489 583 478 588 b 511 644 478 614 489 621 b 561 840 542 681 560 715 b 503 1057 563 968 536 1024 b 296 1104 471 1088 418 1104 b 90 1053 179 1104 125 1086 b 19 776 50 1011 26 918 b 40 756 19 761 25 756 l 186 757 b 204 774 197 757 203 763 b 235 928 210 867 215 908 b 294 947 246 940 265 947 b 356 929 324 947 344 940 b 375 817 368 918 374 885 b 346 679 376 744 367 701 b 269 649 328 660 307 649 l 178 649 b 157 626 163 647 157 642 l 157 508 b 178 488 157 493 163 488 l 267 488 b 363 461 319 489 343 482 b 390 311 383 440 390 392 b 369 163 390 210 386 179 b 303 143 356 147 335 143 b 239 163 274 143 256 147 b 208 336 219 179 214 232 b 190 353 208 347 201 353 l 42 353 b 21 332 26 353 21 347 b 92 33 26 181 50 74 b 299 -15 124 3 176 -15 z "},"4":{"ha":576,"x_min":0,"x_max":0,"o":"m 313 0 l 456 0 b 476 21 471 0 476 6 l 476 172 b 492 188 476 183 481 188 l 550 188 b 571 208 565 188 571 193 l 571 329 b 550 350 571 344 565 350 l 492 350 b 476 365 481 350 476 354 l 479 1069 b 458 1090 479 1085 474 1090 l 294 1090 b 269 1076 283 1090 275 1086 b 8 347 190 918 65 504 b 3 315 6 336 3 326 l 3 208 b 24 188 3 193 8 188 l 279 188 b 294 172 290 188 294 183 l 292 21 b 313 0 292 6 297 0 z m 157 367 l 278 758 b 300 763 281 774 297 774 l 296 365 b 281 350 296 354 292 350 l 171 350 b 157 367 158 350 154 356 z "},"5":{"ha":593,"x_min":0,"x_max":0,"o":"m 299 -12 b 506 33 422 -12 476 4 b 568 375 549 79 568 161 b 507 714 568 592 550 672 b 376 750 483 736 444 750 b 235 703 322 750 285 738 b 206 718 215 690 207 694 l 210 910 b 225 925 210 921 214 925 l 531 922 b 551 943 546 922 551 928 l 551 1069 b 531 1090 551 1085 546 1090 l 72 1090 b 51 1069 57 1090 51 1085 l 39 539 b 60 518 39 524 44 518 l 183 515 b 213 528 194 515 204 519 b 240 553 221 538 232 546 b 301 574 257 564 276 574 b 358 558 328 575 347 571 b 382 374 376 543 382 499 b 356 167 382 232 374 185 b 297 147 343 156 322 147 b 235 165 269 147 246 154 b 206 340 219 182 213 214 b 185 361 206 356 200 361 l 44 361 b 24 340 29 361 24 356 b 94 35 31 156 50 79 b 299 -12 124 6 181 -12 z "},"6":{"ha":638,"x_min":0,"x_max":0,"o":"m 324 -15 b 540 35 444 -15 504 -1 b 607 360 589 85 607 167 b 546 664 607 531 586 624 b 407 701 519 690 479 701 b 250 649 346 701 304 688 b 221 664 229 636 222 640 b 256 925 226 846 235 904 b 321 944 269 939 290 944 b 386 926 354 944 372 939 b 414 824 397 917 406 883 b 438 803 415 808 422 803 l 590 803 b 608 824 606 803 611 808 b 538 1053 594 946 572 1019 b 314 1106 501 1088 443 1106 b 115 1054 204 1106 149 1088 b 38 592 60 999 38 899 b 110 35 38 218 54 92 b 324 -15 146 -1 204 -15 z m 322 144 b 250 167 285 144 264 153 b 224 354 233 185 224 232 b 263 501 224 440 239 479 b 338 531 285 521 308 531 b 397 514 368 531 386 526 b 422 358 417 497 422 454 b 396 167 422 236 415 185 b 322 144 383 153 361 144 z "},"7":{"ha":510,"x_min":0,"x_max":0,"o":"m 126 0 l 297 0 b 315 17 308 0 314 6 b 486 894 336 297 408 635 b 492 936 490 910 492 921 l 493 1069 b 472 1090 493 1085 488 1090 l 39 1090 b 18 1069 24 1090 18 1085 l 18 939 b 39 918 18 924 24 918 l 292 921 b 304 904 304 922 308 917 b 110 18 224 668 140 301 b 126 0 108 6 114 0 z "},"8":{"ha":649,"x_min":0,"x_max":0,"o":"m 325 -14 b 550 33 450 -14 518 0 b 615 322 596 79 615 160 b 536 586 615 472 606 524 b 535 624 521 599 521 608 b 604 835 590 683 604 725 b 540 1056 604 950 586 1013 b 324 1104 507 1089 440 1104 b 108 1056 210 1104 143 1089 b 47 835 65 1011 47 949 b 117 621 47 724 60 682 b 114 585 131 607 129 597 b 33 322 42 522 33 474 b 99 32 33 158 53 78 b 325 -14 132 0 201 -14 z m 324 147 b 243 168 278 147 257 153 b 219 332 225 186 219 228 b 249 489 219 429 231 468 b 324 510 264 503 283 510 b 399 489 367 510 386 503 b 431 332 419 468 431 429 b 407 168 431 229 425 186 b 324 147 392 153 371 147 z m 325 671 b 258 690 289 671 272 678 b 231 817 238 710 231 742 b 251 924 231 879 236 908 b 325 943 268 938 286 943 b 397 924 364 943 383 938 b 418 817 414 908 418 879 b 392 692 418 742 411 710 b 325 671 378 678 361 671 z "},"9":{"ha":614,"x_min":0,"x_max":0,"o":"m 292 1106 b 75 1056 171 1106 111 1092 b 8 731 26 1006 8 924 b 69 426 8 560 29 467 b 208 389 96 400 136 389 b 365 442 269 389 311 403 b 394 426 386 454 393 450 b 360 165 389 244 381 186 b 294 146 346 151 325 146 b 229 164 261 146 243 151 b 201 267 218 174 210 207 b 178 288 200 282 193 288 l 25 288 b 7 267 10 288 4 282 b 78 38 21 144 43 71 b 301 -15 114 3 172 -15 b 500 36 411 -15 467 3 b 578 499 556 92 578 192 b 506 1056 578 872 561 999 b 292 1106 469 1092 411 1106 z m 293 946 b 365 924 331 946 351 938 b 392 736 382 906 392 858 b 353 589 392 650 376 611 b 278 560 331 569 307 560 b 218 576 247 560 229 564 b 193 732 199 593 193 636 b 219 924 193 854 200 906 b 293 946 232 938 254 946 z "}," ":{"ha":179,"x_min":0,"x_max":0,"o":""}," ":{"ha":179,"x_min":0,"x_max":0,"o":""},"A":{"ha":650,"x_min":0,"x_max":0,"o":"m 32 -1 l 169 -1 b 189 15 181 -1 188 3 l 215 206 b 235 222 217 217 224 222 l 396 222 b 415 206 407 222 414 217 l 442 15 b 461 -1 443 3 449 -1 b 621 -1 514 -3 568 -3 b 636 17 633 -1 639 4 b 444 1071 585 364 515 756 b 419 1092 442 1086 435 1092 b 236 1092 368 1093 286 1093 b 211 1071 222 1092 214 1085 b 15 17 150 783 68 369 b 32 -1 14 4 18 -1 z m 243 399 b 301 788 261 532 282 667 b 326 794 301 801 321 804 l 388 399 b 372 381 389 386 385 381 l 258 381 b 243 399 246 381 242 386 z "},"Á":{"ha":650,"x_min":0,"x_max":0,"o":"m 32 -1 l 169 -1 b 189 15 181 -1 188 3 l 215 206 b 235 222 217 217 224 222 l 396 222 b 415 206 407 222 414 217 l 442 15 b 461 -1 443 3 449 -1 b 621 -1 514 -3 568 -3 b 636 17 633 -1 639 4 b 444 1071 585 364 515 756 b 419 1092 442 1086 435 1092 b 236 1092 368 1093 286 1093 b 211 1071 222 1092 214 1085 b 15 17 150 783 68 369 b 32 -1 14 4 18 -1 z m 250 1147 l 335 1147 b 360 1161 346 1147 353 1151 l 450 1329 b 440 1346 457 1342 454 1346 l 335 1346 b 311 1331 324 1346 317 1342 l 239 1164 b 250 1147 233 1151 238 1147 z m 243 399 b 301 788 261 532 282 667 b 326 794 301 801 321 804 l 388 399 b 372 381 389 386 385 381 l 258 381 b 243 399 246 381 242 386 z "},"Â":{"ha":650,"x_min":0,"x_max":0,"o":"m 32 -1 l 169 -1 b 189 15 181 -1 188 3 l 215 206 b 235 222 217 217 224 222 l 396 222 b 415 206 407 222 414 217 l 442 15 b 461 -1 443 3 449 -1 b 621 -1 514 -3 568 -3 b 636 17 633 -1 639 4 b 444 1071 585 364 515 756 b 419 1092 442 1086 435 1092 b 236 1092 368 1093 286 1093 b 211 1071 222 1092 214 1085 b 15 17 150 783 68 369 b 32 -1 14 4 18 -1 z m 246 1331 l 160 1161 b 169 1146 153 1150 156 1146 l 261 1146 b 285 1161 272 1146 279 1150 l 321 1233 l 357 1161 b 382 1146 363 1150 369 1146 l 472 1146 b 482 1163 485 1146 489 1150 l 397 1331 b 372 1346 392 1342 385 1346 l 271 1346 b 246 1331 258 1346 251 1342 z m 243 399 b 301 788 261 532 282 667 b 326 794 301 801 321 804 l 388 399 b 372 381 389 386 385 381 l 258 381 b 243 399 246 381 242 386 z "},"Ä":{"ha":650,"x_min":0,"x_max":0,"o":"m 32 -1 l 169 -1 b 189 15 181 -1 188 3 l 215 206 b 235 222 217 217 224 222 l 396 222 b 415 206 407 222 414 217 l 442 15 b 461 -1 443 3 449 -1 b 621 -1 514 -3 568 -3 b 636 17 633 -1 639 4 b 444 1071 585 364 515 756 b 419 1092 442 1086 435 1092 b 236 1092 368 1093 286 1093 b 211 1071 222 1092 214 1085 b 15 17 150 783 68 369 b 32 -1 14 4 18 -1 z m 361 1158 l 460 1158 b 481 1178 474 1158 481 1164 l 481 1293 b 460 1313 481 1307 475 1313 l 361 1313 b 342 1293 347 1313 342 1307 l 342 1178 b 361 1158 342 1164 347 1158 z m 188 1158 l 283 1158 b 304 1178 297 1158 304 1164 l 304 1293 b 283 1313 304 1307 299 1313 l 188 1313 b 167 1293 172 1313 167 1307 l 167 1178 b 188 1158 167 1164 172 1158 z m 243 399 b 301 788 261 532 282 667 b 326 794 301 801 321 804 l 388 399 b 372 381 389 386 385 381 l 258 381 b 243 399 246 381 242 386 z "},"À":{"ha":650,"x_min":0,"x_max":0,"o":"m 32 -1 l 169 -1 b 189 15 181 -1 188 3 l 215 206 b 235 222 217 217 224 222 l 396 222 b 415 206 407 222 414 217 l 442 15 b 461 -1 443 3 449 -1 b 621 -1 514 -3 568 -3 b 636 17 633 -1 639 4 b 444 1071 585 364 515 756 b 419 1092 442 1086 435 1092 b 236 1092 368 1093 286 1093 b 211 1071 222 1092 214 1085 b 15 17 150 783 68 369 b 32 -1 14 4 18 -1 z m 403 1164 l 336 1331 b 314 1346 332 1342 325 1346 l 206 1346 b 196 1329 192 1346 189 1342 l 281 1161 b 306 1146 286 1151 293 1146 l 390 1146 b 403 1164 404 1146 407 1151 z m 243 399 b 301 788 261 532 282 667 b 326 794 301 801 321 804 l 388 399 b 372 381 389 386 385 381 l 258 381 b 243 399 246 381 242 386 z "},"Å":{"ha":650,"x_min":0,"x_max":0,"o":"m 32 -1 l 169 -1 b 189 15 181 -1 188 3 l 215 206 b 235 222 217 217 224 222 l 396 222 b 415 206 407 222 414 217 l 442 15 b 461 -1 443 3 449 -1 b 621 -1 514 -3 568 -3 b 636 17 633 -1 639 4 b 444 1071 585 364 515 756 b 419 1092 442 1086 435 1092 b 236 1092 368 1093 286 1093 b 211 1071 222 1092 214 1085 b 15 17 150 783 68 369 b 32 -1 14 4 18 -1 z m 324 1125 b 454 1257 403 1125 454 1179 b 324 1389 454 1333 403 1389 b 192 1257 243 1389 192 1333 b 324 1125 192 1181 243 1125 z m 324 1207 b 290 1257 303 1207 292 1222 b 324 1306 292 1290 303 1306 b 356 1257 343 1306 356 1290 b 324 1207 356 1222 343 1207 z m 243 399 b 301 788 261 532 282 667 b 326 794 301 801 321 804 l 388 399 b 372 381 389 386 385 381 l 258 381 b 243 399 246 381 242 386 z "},"Ã":{"ha":650,"x_min":0,"x_max":0,"o":"m 32 -1 l 169 -1 b 189 15 181 -1 188 3 l 215 206 b 235 222 217 217 224 222 l 396 222 b 415 206 407 222 414 217 l 442 15 b 461 -1 443 3 449 -1 b 621 -1 514 -3 568 -3 b 636 17 633 -1 639 4 b 444 1071 585 364 515 756 b 419 1092 442 1086 435 1092 b 236 1092 368 1093 286 1093 b 211 1071 222 1092 214 1085 b 15 17 150 783 68 369 b 32 -1 14 4 18 -1 z m 399 1140 b 467 1167 426 1140 450 1150 b 478 1197 475 1176 478 1185 l 478 1275 b 465 1281 478 1288 474 1289 b 401 1254 442 1260 429 1254 b 340 1271 382 1254 363 1263 b 261 1290 318 1281 292 1290 b 190 1264 233 1290 208 1281 b 179 1233 182 1254 179 1246 l 179 1154 b 193 1149 179 1142 183 1139 b 256 1176 218 1172 232 1176 b 319 1160 278 1176 297 1168 b 399 1140 343 1150 368 1140 z m 243 399 b 301 788 261 532 282 667 b 326 794 301 801 321 804 l 388 399 b 372 381 389 386 385 381 l 258 381 b 243 399 246 381 242 386 z "},"B":{"ha":628,"x_min":0,"x_max":0,"o":"m 74 0 l 358 0 b 546 46 460 0 510 8 b 593 314 585 85 593 142 b 551 547 593 463 585 511 b 519 588 535 564 519 572 b 546 631 519 600 529 608 b 585 831 572 663 585 701 b 535 1049 585 951 574 1008 b 347 1090 503 1081 464 1090 l 74 1090 b 53 1071 58 1090 53 1085 b 53 21 50 842 50 343 b 74 0 53 6 58 0 z m 236 165 b 236 483 235 236 235 404 b 250 499 236 493 240 499 l 335 499 b 388 483 360 499 375 494 b 408 326 401 468 408 447 b 392 165 408 193 404 178 b 338 151 381 154 363 151 l 250 151 b 236 165 240 151 236 156 z m 235 657 b 236 925 233 728 235 856 b 251 940 238 936 242 940 l 332 940 b 383 926 357 940 374 938 b 400 790 396 915 400 893 b 378 658 400 700 390 672 b 331 642 367 647 353 642 l 249 642 b 235 657 239 642 235 646 z "},"C":{"ha":631,"x_min":0,"x_max":0,"o":"m 321 -14 b 529 40 431 -14 492 3 b 601 426 574 86 593 183 b 583 444 601 439 596 444 l 432 446 b 414 429 419 446 414 442 b 382 168 407 249 400 188 b 321 147 365 153 347 147 b 258 168 292 147 272 154 b 224 542 235 192 224 294 b 258 919 224 793 235 896 b 321 942 274 935 293 942 b 382 919 347 942 367 935 b 414 693 397 903 406 847 b 432 676 414 681 419 676 l 583 676 b 601 694 596 676 601 682 b 526 1050 593 914 574 1003 b 319 1103 489 1088 428 1103 b 121 1047 214 1103 158 1086 b 38 540 61 988 38 849 b 118 43 38 240 60 104 b 321 -14 157 3 214 -14 z "},"Ç":{"ha":631,"x_min":0,"x_max":0,"o":"m 38 540 b 118 43 38 240 60 104 b 260 -11 149 11 190 -6 l 204 -178 b 217 -196 200 -190 204 -196 l 318 -196 b 340 -179 331 -196 338 -190 l 383 -11 b 529 40 456 -6 500 11 b 601 426 574 86 593 183 b 583 444 601 439 596 444 l 432 446 b 414 429 419 446 414 442 b 382 168 407 249 400 188 b 321 147 365 153 347 147 b 258 168 292 147 272 154 b 224 542 235 192 224 294 b 258 919 224 793 235 896 b 321 942 274 935 293 942 b 382 919 347 942 367 935 b 414 693 397 903 406 847 b 432 676 414 681 419 676 l 583 676 b 601 694 596 676 601 682 b 526 1050 593 914 574 1003 b 319 1103 489 1088 428 1103 b 121 1047 214 1103 158 1086 b 38 540 61 988 38 849 z "},"D":{"ha":626,"x_min":0,"x_max":0,"o":"m 74 0 l 351 0 b 525 47 442 0 490 11 b 590 549 572 94 590 144 b 521 1044 590 929 568 997 b 335 1090 485 1081 431 1090 l 74 1090 b 53 1071 58 1090 53 1085 b 53 21 50 856 50 238 b 74 0 53 6 58 0 z m 233 174 b 235 915 233 325 233 767 b 249 931 235 926 239 931 l 318 931 b 375 914 342 931 363 926 b 406 544 396 893 406 847 b 379 176 406 229 397 194 b 321 158 365 164 347 158 l 249 158 b 233 174 238 158 233 163 z "},"Ð":{"ha":626,"x_min":0,"x_max":0,"o":"m 74 0 l 351 0 b 525 47 442 0 490 11 b 590 549 572 94 590 144 b 521 1044 590 929 568 997 b 335 1090 485 1081 431 1090 l 74 1090 b 53 1071 58 1090 53 1085 l 51 611 l 18 611 b -3 590 3 611 -3 606 l -3 506 b 18 485 -3 490 3 485 l 51 485 l 53 21 b 74 0 53 6 58 0 z m 233 174 l 233 485 l 275 485 b 294 506 289 485 294 490 l 294 590 b 275 611 294 604 289 611 l 233 611 l 235 915 b 249 931 235 926 239 931 l 318 931 b 375 914 342 931 363 926 b 406 544 396 893 406 847 b 379 176 406 229 397 194 b 321 158 365 164 347 158 l 249 158 b 233 174 238 158 233 163 z "},"E":{"ha":528,"x_min":0,"x_max":0,"o":"m 75 0 l 472 0 b 492 21 486 0 492 6 l 492 140 b 472 161 492 154 486 161 l 249 160 b 233 174 238 160 233 163 b 233 469 232 247 232 400 b 249 485 233 481 238 485 l 457 483 b 478 504 472 483 478 489 l 478 618 b 457 639 478 633 472 639 l 249 639 b 233 654 238 639 233 643 b 233 917 232 722 232 850 b 249 932 233 926 238 932 l 471 928 b 492 949 485 928 492 933 l 492 1071 b 471 1090 492 1085 486 1090 l 74 1090 b 53 1071 60 1090 54 1085 b 54 21 50 850 50 256 b 75 0 54 6 60 0 z "},"É":{"ha":528,"x_min":0,"x_max":0,"o":"m 75 0 l 472 0 b 492 21 486 0 492 6 l 492 140 b 472 161 492 154 486 161 l 249 160 b 233 174 238 160 233 163 b 233 469 232 247 232 400 b 249 485 233 481 238 485 l 457 483 b 478 504 472 483 478 489 l 478 618 b 457 639 478 633 472 639 l 249 639 b 233 654 238 639 233 643 b 233 917 232 722 232 850 b 249 932 233 926 238 932 l 471 928 b 492 949 485 928 492 933 l 492 1071 b 471 1090 492 1085 486 1090 l 74 1090 b 53 1071 60 1090 54 1085 b 54 21 50 850 50 256 b 75 0 54 6 60 0 z m 208 1147 l 293 1147 b 318 1161 304 1147 311 1151 l 408 1329 b 399 1346 415 1342 413 1346 l 293 1346 b 269 1331 282 1346 275 1342 l 197 1164 b 208 1147 192 1151 196 1147 z "},"Ê":{"ha":528,"x_min":0,"x_max":0,"o":"m 75 0 l 472 0 b 492 21 486 0 492 6 l 492 140 b 472 161 492 154 486 161 l 249 160 b 233 174 238 160 233 163 b 233 469 232 247 232 400 b 249 485 233 481 238 485 l 457 483 b 478 504 472 483 478 489 l 478 618 b 457 639 478 633 472 639 l 249 639 b 233 654 238 639 233 643 b 233 917 232 722 232 850 b 249 932 233 926 238 932 l 471 928 b 492 949 485 928 492 933 l 492 1071 b 471 1090 492 1085 486 1090 l 74 1090 b 53 1071 60 1090 54 1085 b 54 21 50 850 50 256 b 75 0 54 6 60 0 z m 206 1331 l 119 1161 b 129 1146 113 1150 115 1146 l 221 1146 b 244 1161 232 1146 239 1150 l 281 1233 l 317 1161 b 342 1146 322 1150 329 1146 l 432 1146 b 442 1163 444 1146 449 1150 l 357 1331 b 332 1346 351 1342 344 1346 l 231 1346 b 206 1331 218 1346 211 1342 z "},"Ë":{"ha":528,"x_min":0,"x_max":0,"o":"m 75 0 l 472 0 b 492 21 486 0 492 6 l 492 140 b 472 161 492 154 486 161 l 249 160 b 233 174 238 160 233 163 b 233 469 232 247 232 400 b 249 485 233 481 238 485 l 457 483 b 478 504 472 483 478 489 l 478 618 b 457 639 478 633 472 639 l 249 639 b 233 654 238 639 233 643 b 233 917 232 722 232 850 b 249 932 233 926 238 932 l 471 928 b 492 949 485 928 492 933 l 492 1071 b 471 1090 492 1085 486 1090 l 74 1090 b 53 1071 60 1090 54 1085 b 54 21 50 850 50 256 b 75 0 54 6 60 0 z m 321 1158 l 419 1158 b 440 1178 433 1158 440 1164 l 440 1293 b 419 1313 440 1307 435 1313 l 321 1313 b 301 1293 307 1313 301 1307 l 301 1178 b 321 1158 301 1164 307 1158 z m 147 1158 l 243 1158 b 264 1178 257 1158 264 1164 l 264 1293 b 243 1313 264 1307 258 1313 l 147 1313 b 126 1293 132 1313 126 1307 l 126 1178 b 147 1158 126 1164 132 1158 z "},"È":{"ha":528,"x_min":0,"x_max":0,"o":"m 75 0 l 472 0 b 492 21 486 0 492 6 l 492 140 b 472 161 492 154 486 161 l 249 160 b 233 174 238 160 233 163 b 233 469 232 247 232 400 b 249 485 233 481 238 485 l 457 483 b 478 504 472 483 478 489 l 478 618 b 457 639 478 633 472 639 l 249 639 b 233 654 238 639 233 643 b 233 917 232 722 232 850 b 249 932 233 926 238 932 l 471 928 b 492 949 485 928 492 933 l 492 1071 b 471 1090 492 1085 486 1090 l 74 1090 b 53 1071 60 1090 54 1085 b 54 21 50 850 50 256 b 75 0 54 6 60 0 z m 361 1164 l 294 1331 b 272 1346 290 1342 283 1346 l 164 1346 b 154 1329 150 1346 147 1342 l 239 1161 b 264 1146 244 1151 251 1146 l 349 1146 b 361 1164 363 1146 365 1151 z "},"F":{"ha":517,"x_min":0,"x_max":0,"o":"m 76 0 l 218 0 b 239 21 233 0 239 6 b 233 433 236 117 236 294 b 247 449 233 444 238 449 l 472 447 b 492 468 486 447 492 453 l 492 589 b 472 610 492 603 486 610 l 247 608 b 232 624 238 608 233 613 l 235 915 b 250 931 235 926 239 931 l 476 926 b 496 947 490 926 496 932 l 496 1071 b 476 1090 496 1085 490 1090 l 76 1092 b 56 1071 61 1092 56 1086 b 56 21 50 814 47 314 b 76 0 56 6 61 0 z "},"G":{"ha":643,"x_min":0,"x_max":0,"o":"m 268 -14 b 454 53 338 -14 396 6 b 486 40 472 67 482 63 l 488 21 b 511 0 490 6 496 0 l 582 0 b 603 21 597 0 603 6 l 599 583 b 578 603 599 597 592 603 l 338 603 b 318 583 324 603 318 597 l 318 468 b 338 447 318 453 324 447 l 406 447 b 421 432 417 447 421 443 b 378 179 424 244 414 215 b 314 146 356 158 335 146 b 261 165 292 146 275 151 b 224 532 235 194 224 288 b 261 919 224 796 235 892 b 326 943 276 936 299 943 b 386 922 351 943 372 936 b 418 774 400 908 410 868 b 436 757 419 761 425 757 l 582 757 b 600 775 596 757 600 763 b 529 1050 588 942 568 1011 b 326 1104 493 1086 425 1104 b 124 1049 229 1104 163 1086 b 38 536 60 983 38 856 b 122 33 38 222 60 97 b 268 -14 157 1 203 -14 z "},"H":{"ha":651,"x_min":0,"x_max":0,"o":"m 74 0 l 219 0 b 239 21 233 0 239 6 b 240 450 238 138 239 335 b 256 465 242 461 246 465 l 399 465 b 414 450 408 465 413 461 b 413 21 415 331 414 143 b 432 0 413 6 418 0 l 579 0 b 599 21 593 0 599 6 b 596 1071 601 275 600 815 b 575 1090 596 1085 590 1090 l 435 1090 b 414 1071 419 1090 414 1085 b 414 646 415 950 415 765 b 399 632 413 636 408 632 l 256 632 b 240 646 246 632 242 636 b 236 1071 238 753 236 960 b 217 1090 236 1085 231 1090 l 76 1090 b 56 1071 63 1090 56 1085 b 53 21 51 818 49 281 b 74 0 53 6 58 0 z "},"I":{"ha":285,"x_min":0,"x_max":0,"o":"m 74 0 b 211 0 118 -1 169 -1 b 232 21 226 0 232 6 b 232 1071 236 333 236 810 b 211 1092 232 1085 226 1092 l 74 1092 b 53 1071 60 1092 53 1085 b 53 21 50 810 49 332 b 74 0 53 6 58 0 z "},"Ĳ":{"ha":865,"x_min":0,"x_max":0,"o":"m 74 0 b 211 0 118 -1 169 -1 b 232 21 226 0 232 6 b 232 1071 236 333 236 810 b 211 1092 232 1085 226 1092 l 74 1092 b 53 1071 60 1092 53 1085 b 53 21 50 810 49 332 b 74 0 53 6 58 0 z m 567 -15 b 771 36 676 -15 738 3 b 819 343 807 74 818 119 b 815 1071 821 644 819 879 b 794 1092 815 1085 810 1092 b 651 1092 753 1093 692 1093 b 632 1071 638 1090 632 1085 b 638 347 632 883 638 635 b 621 163 638 192 633 175 b 565 146 610 151 592 146 b 510 161 535 146 519 151 b 486 386 496 174 490 190 b 465 407 485 400 479 407 b 322 407 425 408 361 408 b 303 386 308 407 303 400 b 360 39 308 124 321 78 b 567 -15 396 3 458 -15 z "},"Í":{"ha":285,"x_min":0,"x_max":0,"o":"m 74 0 b 211 0 118 -1 169 -1 b 232 21 226 0 232 6 b 232 1071 236 333 236 810 b 211 1092 232 1085 226 1092 l 74 1092 b 53 1071 60 1092 53 1085 b 53 21 50 810 49 332 b 74 0 53 6 58 0 z m 72 1147 l 157 1147 b 182 1161 168 1147 175 1151 l 272 1329 b 263 1346 279 1342 276 1346 l 157 1346 b 133 1331 146 1346 139 1342 l 61 1164 b 72 1147 56 1151 60 1147 z "},"Î":{"ha":285,"x_min":0,"x_max":0,"o":"m 74 0 b 211 0 118 -1 169 -1 b 232 21 226 0 232 6 b 232 1071 236 333 236 810 b 211 1092 232 1085 226 1092 l 74 1092 b 53 1071 60 1092 53 1085 b 53 21 50 810 49 332 b 74 0 53 6 58 0 z m 68 1331 l -18 1161 b -8 1146 -25 1150 -22 1146 l 83 1146 b 107 1161 94 1146 101 1150 l 143 1233 l 179 1161 b 204 1146 185 1150 192 1146 l 294 1146 b 304 1163 307 1146 311 1150 l 219 1331 b 194 1346 214 1342 207 1346 l 93 1346 b 68 1331 81 1346 74 1342 z "},"Ï":{"ha":285,"x_min":0,"x_max":0,"o":"m 74 0 b 211 0 118 -1 169 -1 b 232 21 226 0 232 6 b 232 1071 236 333 236 810 b 211 1092 232 1085 226 1092 l 74 1092 b 53 1071 60 1092 53 1085 b 53 21 50 810 49 332 b 74 0 53 6 58 0 z m 183 1158 l 282 1158 b 303 1178 296 1158 303 1164 l 303 1293 b 282 1313 303 1307 297 1313 l 183 1313 b 164 1293 169 1313 164 1307 l 164 1178 b 183 1158 164 1164 169 1158 z m 10 1158 l 106 1158 b 126 1178 119 1158 126 1164 l 126 1293 b 106 1313 126 1307 121 1313 l 10 1313 b -11 1293 -6 1313 -11 1307 l -11 1178 b 10 1158 -11 1164 -6 1158 z "},"Ì":{"ha":285,"x_min":0,"x_max":0,"o":"m 74 0 b 211 0 118 -1 169 -1 b 232 21 226 0 232 6 b 232 1071 236 333 236 810 b 211 1092 232 1085 226 1092 l 74 1092 b 53 1071 60 1092 53 1085 b 53 21 50 810 49 332 b 74 0 53 6 58 0 z m 225 1164 l 158 1331 b 136 1346 154 1342 147 1346 l 28 1346 b 18 1329 14 1346 11 1342 l 103 1161 b 128 1146 108 1151 115 1146 l 213 1146 b 225 1164 226 1146 229 1151 z "},"J":{"ha":585,"x_min":0,"x_max":0,"o":"m 286 -15 b 490 36 396 -15 457 3 b 539 343 526 74 538 119 b 535 1071 540 644 539 879 b 514 1092 535 1085 529 1092 b 371 1092 472 1093 411 1093 b 351 1071 357 1090 351 1085 b 357 347 351 883 357 635 b 340 163 357 192 353 175 b 285 146 329 151 311 146 b 229 161 254 146 239 151 b 206 386 215 174 210 190 b 185 407 204 400 199 407 b 42 407 144 408 81 408 b 22 386 28 407 22 400 b 79 39 28 124 40 78 b 286 -15 115 3 178 -15 z "},"K":{"ha":621,"x_min":0,"x_max":0,"o":"m 76 0 l 219 0 b 239 21 233 0 239 6 b 236 503 239 153 235 326 b 258 514 235 517 251 522 b 410 17 304 363 388 122 b 429 0 411 4 418 0 l 604 0 b 617 18 617 0 621 6 b 425 606 558 186 489 438 b 425 638 421 617 421 626 b 615 1074 485 781 563 940 b 603 1090 619 1086 617 1090 l 435 1090 b 413 1075 424 1090 417 1086 b 263 676 375 956 313 810 b 235 672 260 661 239 663 l 238 1071 b 217 1092 238 1085 232 1090 l 75 1092 b 54 1072 61 1092 54 1086 b 56 21 49 850 50 243 b 76 0 56 6 61 0 z "},"L":{"ha":499,"x_min":0,"x_max":0,"o":"m 75 0 l 464 0 b 485 21 478 0 485 6 l 483 144 b 463 167 483 160 478 165 b 247 164 408 168 315 164 b 233 178 238 164 233 168 b 239 1071 231 404 238 871 b 218 1090 239 1085 233 1090 l 75 1090 b 54 1071 61 1090 56 1085 b 54 21 51 793 49 264 b 75 0 54 6 60 0 z "},"M":{"ha":831,"x_min":0,"x_max":0,"o":"m 74 0 l 190 0 b 211 21 206 0 211 6 b 210 654 208 190 208 451 b 222 663 208 668 217 672 b 325 17 251 461 293 208 b 346 0 328 6 333 0 l 463 0 b 482 17 475 0 481 6 b 583 660 510 201 554 464 b 596 667 583 675 592 676 b 596 21 597 472 596 204 b 617 0 596 6 601 0 l 757 0 b 778 21 771 0 778 6 b 778 1071 781 281 781 814 b 757 1090 778 1085 772 1090 l 578 1090 b 558 1074 567 1090 560 1086 b 432 346 518 853 458 556 b 422 333 431 338 429 333 b 413 346 417 333 414 339 b 288 1075 383 560 331 878 b 268 1090 286 1086 279 1090 l 74 1092 b 53 1071 60 1092 53 1086 b 53 21 50 810 50 261 b 74 0 53 6 58 0 z "},"N":{"ha":681,"x_min":0,"x_max":0,"o":"m 68 -1 b 204 -1 110 -3 168 -3 b 224 21 218 0 224 6 b 218 640 224 215 218 471 b 236 649 215 651 229 656 b 440 17 292 476 382 217 b 463 -1 444 4 450 0 b 610 -1 506 -3 568 -3 b 631 21 625 0 631 6 b 631 1071 633 313 633 769 b 611 1092 631 1085 625 1092 b 476 1092 571 1093 515 1093 b 457 1071 463 1092 457 1086 l 460 492 b 442 482 461 479 447 476 b 247 1075 394 642 303 935 b 224 1092 243 1086 236 1092 b 69 1092 182 1093 125 1093 b 49 1071 54 1092 49 1086 b 49 21 46 747 46 317 b 68 -1 49 6 54 0 z "},"Ñ":{"ha":681,"x_min":0,"x_max":0,"o":"m 68 -1 b 204 -1 110 -3 168 -3 b 224 21 218 0 224 6 b 218 640 224 215 218 471 b 236 649 215 651 229 656 b 440 17 292 476 382 217 b 463 -1 444 4 450 0 b 610 -1 506 -3 568 -3 b 631 21 625 0 631 6 b 631 1071 633 313 633 769 b 611 1092 631 1085 625 1092 b 476 1092 571 1093 515 1093 b 457 1071 463 1092 457 1086 l 460 492 b 442 482 461 479 447 476 b 247 1075 394 642 303 935 b 224 1092 243 1086 236 1092 b 69 1092 182 1093 125 1093 b 49 1071 54 1092 49 1086 b 49 21 46 747 46 317 b 68 -1 49 6 54 0 z m 415 1140 b 483 1167 443 1140 467 1150 b 494 1197 492 1176 494 1185 l 494 1275 b 482 1281 494 1288 490 1289 b 418 1254 458 1260 446 1254 b 357 1271 399 1254 379 1263 b 278 1290 335 1281 308 1290 b 207 1264 250 1290 225 1281 b 196 1233 199 1254 196 1246 l 196 1154 b 210 1149 196 1142 200 1139 b 272 1176 235 1172 249 1176 b 336 1160 294 1176 314 1168 b 415 1140 360 1150 385 1140 z "},"O":{"ha":644,"x_min":0,"x_max":0,"o":"m 324 -12 b 532 40 436 -12 496 3 b 607 546 585 94 607 208 b 528 1050 607 882 583 996 b 324 1104 490 1089 432 1104 b 119 1050 215 1104 156 1089 b 38 546 64 994 38 879 b 114 40 38 210 61 96 b 324 -12 151 3 211 -12 z m 322 149 b 257 171 292 149 272 156 b 224 546 232 197 224 285 b 258 921 224 806 232 894 b 322 943 274 936 293 943 b 388 919 353 943 372 936 b 421 546 413 896 421 806 b 388 171 421 285 414 197 b 322 149 372 156 353 149 z "},"Ó":{"ha":644,"x_min":0,"x_max":0,"o":"m 324 -12 b 532 40 436 -12 496 3 b 607 546 585 94 607 208 b 528 1050 607 882 583 996 b 324 1104 490 1089 432 1104 b 119 1050 215 1104 156 1089 b 38 546 64 994 38 879 b 114 40 38 210 61 96 b 324 -12 151 3 211 -12 z m 322 149 b 257 171 292 149 272 156 b 224 546 232 197 224 285 b 258 921 224 806 232 894 b 322 943 274 936 293 943 b 388 919 353 943 372 936 b 421 546 413 896 421 806 b 388 171 421 285 414 197 b 322 149 372 156 353 149 z m 250 1147 l 335 1147 b 360 1161 346 1147 353 1151 l 450 1329 b 440 1346 457 1342 454 1346 l 335 1346 b 311 1331 324 1346 317 1342 l 239 1164 b 250 1147 233 1151 238 1147 z "},"Ô":{"ha":644,"x_min":0,"x_max":0,"o":"m 324 -12 b 532 40 436 -12 496 3 b 607 546 585 94 607 208 b 528 1050 607 882 583 996 b 324 1104 490 1089 432 1104 b 119 1050 215 1104 156 1089 b 38 546 64 994 38 879 b 114 40 38 210 61 96 b 324 -12 151 3 211 -12 z m 322 149 b 257 171 292 149 272 156 b 224 546 232 197 224 285 b 258 921 224 806 232 894 b 322 943 274 936 293 943 b 388 919 353 943 372 936 b 421 546 413 896 421 806 b 388 171 421 285 414 197 b 322 149 372 156 353 149 z m 247 1331 l 161 1161 b 171 1146 154 1150 157 1146 l 263 1146 b 286 1161 274 1146 281 1150 l 322 1233 l 358 1161 b 383 1146 364 1150 371 1146 l 474 1146 b 483 1163 486 1146 490 1150 l 399 1331 b 374 1346 393 1342 386 1346 l 272 1346 b 247 1331 260 1346 253 1342 z "},"Ö":{"ha":644,"x_min":0,"x_max":0,"o":"m 324 -12 b 532 40 436 -12 496 3 b 607 546 585 94 607 208 b 528 1050 607 882 583 996 b 324 1104 490 1089 432 1104 b 119 1050 215 1104 156 1089 b 38 546 64 994 38 879 b 114 40 38 210 61 96 b 324 -12 151 3 211 -12 z m 322 149 b 257 171 292 149 272 156 b 224 546 232 197 224 285 b 258 921 224 806 232 894 b 322 943 274 936 293 943 b 388 919 353 943 372 936 b 421 546 413 896 421 806 b 388 171 421 285 414 197 b 322 149 372 156 353 149 z m 363 1158 l 461 1158 b 482 1178 475 1158 482 1164 l 482 1293 b 461 1313 482 1307 476 1313 l 363 1313 b 343 1293 349 1313 343 1307 l 343 1178 b 363 1158 343 1164 349 1158 z m 189 1158 l 285 1158 b 306 1178 299 1158 306 1164 l 306 1293 b 285 1313 306 1307 300 1313 l 189 1313 b 168 1293 174 1313 168 1307 l 168 1178 b 189 1158 168 1164 174 1158 z "},"Ò":{"ha":644,"x_min":0,"x_max":0,"o":"m 324 -12 b 532 40 436 -12 496 3 b 607 546 585 94 607 208 b 528 1050 607 882 583 996 b 324 1104 490 1089 432 1104 b 119 1050 215 1104 156 1089 b 38 546 64 994 38 879 b 114 40 38 210 61 96 b 324 -12 151 3 211 -12 z m 322 149 b 257 171 292 149 272 156 b 224 546 232 197 224 285 b 258 921 224 806 232 894 b 322 943 274 936 293 943 b 388 919 353 943 372 936 b 421 546 413 896 421 806 b 388 171 421 285 414 197 b 322 149 372 156 353 149 z m 403 1164 l 336 1331 b 314 1346 332 1342 325 1346 l 206 1346 b 196 1329 192 1346 189 1342 l 281 1161 b 306 1146 286 1151 293 1146 l 390 1146 b 403 1164 404 1146 407 1151 z "},"Ø":{"ha":644,"x_min":0,"x_max":0,"o":"m 324 -12 b 532 40 436 -12 496 3 b 607 546 585 94 607 208 b 528 1050 607 882 583 996 b 472 1086 513 1065 494 1076 l 485 1153 b 469 1171 488 1165 482 1171 l 414 1171 b 394 1154 403 1171 397 1167 l 385 1103 l 324 1104 b 119 1050 215 1104 156 1089 b 38 546 64 994 38 879 b 114 40 38 210 61 96 b 174 4 129 25 149 14 l 158 -74 b 172 -93 156 -87 160 -93 l 228 -93 b 249 -76 240 -93 246 -87 l 261 -11 z m 322 149 b 293 151 311 149 301 150 l 415 793 b 421 546 419 736 421 657 b 388 171 421 285 414 197 b 322 149 372 156 353 149 z m 224 546 b 258 921 224 806 232 894 b 322 943 274 936 293 943 b 353 940 335 943 344 942 l 229 294 b 224 546 225 351 224 432 z "},"Õ":{"ha":644,"x_min":0,"x_max":0,"o":"m 324 -12 b 532 40 436 -12 496 3 b 607 546 585 94 607 208 b 528 1050 607 882 583 996 b 324 1104 490 1089 432 1104 b 119 1050 215 1104 156 1089 b 38 546 64 994 38 879 b 114 40 38 210 61 96 b 324 -12 151 3 211 -12 z m 322 149 b 257 171 292 149 272 156 b 224 546 232 197 224 285 b 258 921 224 806 232 894 b 322 943 274 936 293 943 b 388 919 353 943 372 936 b 421 546 413 896 421 806 b 388 171 421 285 414 197 b 322 149 372 156 353 149 z m 400 1140 b 468 1167 428 1140 451 1150 b 479 1197 476 1176 479 1185 l 479 1275 b 467 1281 479 1288 475 1289 b 403 1254 443 1260 431 1254 b 342 1271 383 1254 364 1263 b 263 1290 319 1281 293 1290 b 192 1264 235 1290 210 1281 b 181 1233 183 1254 181 1246 l 181 1154 b 194 1149 181 1142 185 1139 b 257 1176 219 1172 233 1176 b 321 1160 279 1176 299 1168 b 400 1140 344 1150 369 1140 z "},"Œ":{"ha":894,"x_min":0,"x_max":0,"o":"m 324 -12 b 457 0 381 -12 424 -8 l 839 0 b 858 21 853 0 858 6 l 858 140 b 839 161 858 154 853 161 l 615 160 b 600 174 604 160 600 163 l 599 275 b 607 483 603 331 606 399 b 615 485 608 485 611 485 l 824 483 b 844 504 839 483 844 489 l 844 618 b 824 639 844 633 839 639 l 615 639 b 606 640 611 639 608 639 b 599 811 606 707 603 764 l 600 917 b 615 932 600 926 604 932 l 838 928 b 858 949 851 928 858 933 l 858 1071 b 838 1090 858 1085 853 1090 l 457 1090 b 324 1104 424 1100 381 1104 b 119 1050 215 1104 156 1089 b 38 546 64 994 38 879 b 114 40 38 210 61 96 b 324 -12 151 3 211 -12 z m 322 149 b 257 171 292 149 272 156 b 224 546 232 197 224 285 b 258 921 224 806 232 894 b 322 943 274 936 293 943 b 388 919 353 943 372 936 b 418 756 404 904 414 858 l 418 338 b 388 171 414 233 406 189 b 322 149 372 156 353 149 z "},"P":{"ha":603,"x_min":0,"x_max":0,"o":"m 72 0 l 221 0 b 240 21 235 0 240 6 b 236 357 236 124 236 267 b 251 372 236 368 240 372 l 338 372 b 524 426 432 372 485 388 b 583 738 563 467 583 529 b 524 1053 583 946 564 1011 b 339 1101 488 1090 438 1101 l 72 1101 b 53 1081 58 1101 53 1096 b 51 21 50 890 50 228 b 72 0 51 6 58 0 z m 232 546 l 233 929 b 247 943 233 939 238 943 l 319 943 b 378 926 350 943 365 939 b 400 732 393 911 400 883 b 378 547 400 582 394 563 b 324 531 367 536 353 531 l 247 531 b 232 546 236 531 232 535 z "},"Q":{"ha":632,"x_min":0,"x_max":0,"o":"m 426 -249 b 546 -246 472 -249 515 -247 b 565 -224 560 -244 565 -239 l 565 -121 b 544 -101 565 -107 560 -101 l 450 -103 b 417 -74 424 -103 417 -93 l 417 -3 b 532 44 472 4 507 19 b 607 547 585 97 607 211 b 528 1047 607 881 583 994 b 324 1101 490 1086 432 1101 b 119 1047 215 1101 156 1086 b 38 547 64 993 38 878 b 114 44 38 213 61 99 b 232 -4 139 19 175 4 l 232 -72 b 426 -249 232 -210 275 -249 z m 322 151 b 257 174 292 151 272 158 b 224 547 232 200 224 288 b 258 919 224 804 232 893 b 322 942 274 935 293 942 b 388 918 353 942 372 935 b 421 547 413 894 421 804 b 388 174 421 288 414 200 b 322 151 372 158 353 151 z "},"R":{"ha":625,"x_min":0,"x_max":0,"o":"m 72 0 l 214 0 b 235 21 228 0 235 6 l 235 364 b 249 378 235 374 239 378 l 329 378 b 376 363 351 378 365 374 b 394 281 390 349 394 324 l 394 21 b 415 0 394 6 400 0 l 557 0 b 576 21 571 0 576 6 l 578 260 b 532 435 578 363 569 399 b 513 465 521 446 513 454 b 532 499 513 476 522 488 b 592 751 568 540 592 586 b 535 1054 590 961 572 1018 b 364 1101 501 1089 463 1101 l 72 1101 b 51 1081 58 1101 51 1096 b 51 21 50 850 50 249 b 72 0 51 6 57 0 z m 232 556 l 235 928 b 250 943 235 938 239 943 l 329 943 b 382 925 356 943 372 938 b 404 743 400 907 404 879 b 378 558 404 608 397 578 b 329 540 365 546 350 540 l 247 540 b 232 556 238 540 232 544 z "},"S":{"ha":588,"x_min":0,"x_max":0,"o":"m 300 -15 b 500 36 403 -14 465 3 b 567 292 544 81 567 164 b 510 547 567 426 547 504 b 343 639 481 579 443 601 b 238 697 272 665 251 682 b 211 810 219 719 211 754 b 236 926 211 874 219 910 b 296 944 247 938 268 944 b 356 925 322 946 342 940 b 386 781 369 911 378 876 b 408 761 388 767 393 761 l 546 761 b 565 782 561 763 567 768 b 496 1053 558 933 536 1011 b 294 1106 463 1089 396 1106 b 103 1050 204 1106 139 1088 b 29 806 54 1003 29 919 b 92 561 29 694 51 607 b 242 478 122 529 169 508 b 354 419 311 450 339 436 b 385 283 374 393 383 357 b 360 163 386 218 378 181 b 296 146 349 151 328 146 b 239 167 271 146 251 153 b 204 336 222 182 214 224 b 182 357 203 351 197 357 l 43 357 b 24 336 29 357 24 351 b 96 39 31 165 54 81 b 300 -15 132 1 203 -17 z "},"ẞ":{"ha":1190,"x_min":0,"x_max":0,"o":"m 300 -15 b 500 36 403 -14 465 3 b 567 292 544 81 567 164 b 510 547 567 426 547 504 b 343 639 481 579 443 601 b 238 697 272 665 251 682 b 211 810 219 719 211 754 b 236 926 211 874 219 910 b 296 944 247 938 268 944 b 356 925 322 946 342 940 b 386 781 369 911 378 876 b 408 761 388 767 393 761 l 546 761 b 565 782 561 763 567 768 b 496 1053 558 933 536 1011 b 294 1106 463 1089 396 1106 b 103 1050 204 1106 139 1088 b 29 806 54 1003 29 919 b 92 561 29 694 51 607 b 242 478 122 529 169 508 b 354 419 311 450 339 436 b 385 283 374 393 383 357 b 360 163 386 218 378 181 b 296 146 349 151 328 146 b 239 167 271 146 251 153 b 204 336 222 182 214 224 b 182 357 203 351 197 357 l 43 357 b 24 336 29 357 24 351 b 96 39 31 165 54 81 b 300 -15 132 1 203 -17 z m 904 -15 b 1104 36 1007 -14 1069 3 b 1171 292 1149 81 1171 164 b 1114 547 1171 426 1151 504 b 947 639 1085 579 1047 601 b 842 697 876 665 856 682 b 815 810 824 719 815 754 b 840 926 815 874 824 910 b 900 944 851 938 872 944 b 960 925 926 946 946 940 b 990 781 974 911 982 876 b 1013 761 992 767 997 761 l 1150 761 b 1169 782 1165 763 1171 768 b 1100 1053 1163 933 1140 1011 b 899 1106 1067 1089 1000 1106 b 707 1050 808 1106 743 1088 b 633 806 658 1003 633 919 b 696 561 633 694 656 607 b 846 478 726 529 774 508 b 958 419 915 450 943 436 b 989 283 978 393 988 357 b 964 163 990 218 982 181 b 900 146 953 151 932 146 b 843 167 875 146 856 153 b 808 336 826 182 818 224 b 786 357 807 351 801 357 l 647 357 b 628 336 633 357 628 351 b 700 39 635 165 658 81 b 904 -15 736 1 807 -17 z "},"T":{"ha":582,"x_min":0,"x_max":0,"o":"m 222 0 b 365 0 271 -1 315 -1 b 386 21 379 0 386 6 l 383 929 b 399 943 383 939 388 943 l 553 939 b 572 960 567 939 572 944 l 572 1081 b 553 1101 572 1094 567 1101 b 31 1101 406 1104 199 1103 b 10 1081 17 1101 10 1096 l 10 960 b 31 940 10 946 17 939 l 193 943 b 207 929 203 943 207 939 b 201 21 204 681 201 229 b 222 0 201 6 207 0 z "},"U":{"ha":624,"x_min":0,"x_max":0,"o":"m 318 -15 b 532 38 436 -15 494 0 b 579 351 572 79 579 110 b 576 1081 579 669 576 935 b 556 1101 576 1094 571 1101 b 414 1101 510 1103 457 1103 b 393 1081 400 1101 393 1096 l 394 354 b 381 165 396 192 393 178 b 317 147 369 154 353 147 b 247 164 275 147 258 154 b 232 351 235 178 232 192 b 236 1081 232 663 236 925 b 217 1101 236 1094 231 1101 b 71 1101 172 1103 119 1103 b 51 1081 57 1101 51 1096 b 46 349 49 908 46 660 b 97 38 46 117 54 81 b 318 -15 135 0 196 -15 z "},"Ú":{"ha":624,"x_min":0,"x_max":0,"o":"m 318 -15 b 532 38 436 -15 494 0 b 579 351 572 79 579 110 b 576 1081 579 669 576 935 b 556 1101 576 1094 571 1101 b 414 1101 510 1103 457 1103 b 393 1081 400 1101 393 1096 l 394 354 b 381 165 396 192 393 178 b 317 147 369 154 353 147 b 247 164 275 147 258 154 b 232 351 235 178 232 192 b 236 1081 232 663 236 925 b 217 1101 236 1094 231 1101 b 71 1101 172 1103 119 1103 b 51 1081 57 1101 51 1096 b 46 349 49 908 46 660 b 97 38 46 117 54 81 b 318 -15 135 0 196 -15 z m 240 1157 l 325 1157 b 350 1171 336 1157 343 1161 l 440 1339 b 431 1356 447 1351 444 1356 l 325 1356 b 301 1340 314 1356 307 1351 l 229 1174 b 240 1157 224 1161 228 1157 z "},"Û":{"ha":624,"x_min":0,"x_max":0,"o":"m 318 -15 b 532 38 436 -15 494 0 b 579 351 572 79 579 110 b 576 1081 579 669 576 935 b 556 1101 576 1094 571 1101 b 414 1101 510 1103 457 1103 b 393 1081 400 1101 393 1096 l 394 354 b 381 165 396 192 393 178 b 317 147 369 154 353 147 b 247 164 275 147 258 154 b 232 351 235 178 232 192 b 236 1081 232 663 236 925 b 217 1101 236 1094 231 1101 b 71 1101 172 1103 119 1103 b 51 1081 57 1101 51 1096 b 46 349 49 908 46 660 b 97 38 46 117 54 81 b 318 -15 135 0 196 -15 z m 238 1340 l 151 1171 b 161 1156 144 1160 147 1156 l 253 1156 b 276 1171 264 1156 271 1160 l 313 1243 l 349 1171 b 374 1156 354 1160 361 1156 l 464 1156 b 474 1172 476 1156 481 1160 l 389 1340 b 364 1356 383 1351 376 1356 l 263 1356 b 238 1340 250 1356 243 1351 z "},"Ü":{"ha":624,"x_min":0,"x_max":0,"o":"m 318 -15 b 532 38 436 -15 494 0 b 579 351 572 79 579 110 b 576 1081 579 669 576 935 b 556 1101 576 1094 571 1101 b 414 1101 510 1103 457 1103 b 393 1081 400 1101 393 1096 l 394 354 b 381 165 396 192 393 178 b 317 147 369 154 353 147 b 247 164 275 147 258 154 b 232 351 235 178 232 192 b 236 1081 232 663 236 925 b 217 1101 236 1094 231 1101 b 71 1101 172 1103 119 1103 b 51 1081 57 1101 51 1096 b 46 349 49 908 46 660 b 97 38 46 117 54 81 b 318 -15 135 0 196 -15 z m 353 1168 l 451 1168 b 472 1188 465 1168 472 1174 l 472 1303 b 451 1322 472 1317 467 1322 l 353 1322 b 333 1303 339 1322 333 1317 l 333 1188 b 353 1168 333 1174 339 1168 z m 179 1168 l 275 1168 b 296 1188 289 1168 296 1174 l 296 1303 b 275 1322 296 1317 290 1322 l 179 1322 b 158 1303 164 1322 158 1317 l 158 1188 b 179 1168 158 1174 164 1168 z "},"Ù":{"ha":624,"x_min":0,"x_max":0,"o":"m 318 -15 b 532 38 436 -15 494 0 b 579 351 572 79 579 110 b 576 1081 579 669 576 935 b 556 1101 576 1094 571 1101 b 414 1101 510 1103 457 1103 b 393 1081 400 1101 393 1096 l 394 354 b 381 165 396 192 393 178 b 317 147 369 154 353 147 b 247 164 275 147 258 154 b 232 351 235 178 232 192 b 236 1081 232 663 236 925 b 217 1101 236 1094 231 1101 b 71 1101 172 1103 119 1103 b 51 1081 57 1101 51 1096 b 46 349 49 908 46 660 b 97 38 46 117 54 81 b 318 -15 135 0 196 -15 z m 393 1174 l 326 1340 b 304 1356 322 1351 315 1356 l 196 1356 b 186 1339 182 1356 179 1351 l 271 1171 b 296 1156 276 1161 283 1156 l 381 1156 b 393 1174 394 1156 397 1161 z "},"V":{"ha":601,"x_min":0,"x_max":0,"o":"m 206 0 b 403 -1 268 -3 342 -3 b 422 17 414 0 419 4 b 585 1072 482 310 543 783 b 569 1092 588 1086 582 1090 l 426 1092 b 407 1074 414 1090 408 1086 b 319 333 385 882 346 540 b 308 311 317 314 315 311 b 297 333 303 311 300 314 l 208 1074 b 189 1092 207 1086 201 1092 b 40 1092 143 1093 83 1093 b 25 1072 28 1092 22 1086 b 185 17 61 804 121 297 b 206 0 188 6 194 0 z "},"W":{"ha":925,"x_min":0,"x_max":0,"o":"m 172 -1 b 336 -1 215 -3 292 -3 b 356 17 349 0 354 4 b 449 721 385 222 422 515 b 467 729 449 736 461 739 b 581 17 493 521 547 201 b 601 -1 583 4 589 0 b 757 -1 643 -3 714 -3 b 776 17 769 0 775 6 b 901 1074 806 290 879 796 b 885 1093 903 1086 897 1092 l 760 1092 b 742 1074 749 1092 743 1086 b 676 358 725 872 697 583 b 661 350 678 343 667 342 b 557 1074 635 582 583 896 b 538 1092 556 1086 550 1092 b 408 1092 503 1093 447 1093 b 390 1074 396 1092 392 1086 b 294 358 372 901 324 596 b 278 350 294 343 283 340 b 207 1074 258 586 221 897 b 188 1092 206 1086 200 1092 l 44 1092 b 26 1072 31 1092 26 1086 b 153 17 47 818 113 379 b 172 -1 154 6 160 0 z "},"Ẃ":{"ha":925,"x_min":0,"x_max":0,"o":"m 172 -1 b 336 -1 215 -3 292 -3 b 356 17 349 0 354 4 b 449 721 385 222 422 515 b 467 729 449 736 461 739 b 581 17 493 521 547 201 b 601 -1 583 4 589 0 b 757 -1 643 -3 714 -3 b 776 17 769 0 775 6 b 901 1074 806 290 879 796 b 885 1093 903 1086 897 1092 l 760 1092 b 742 1074 749 1092 743 1086 b 676 358 725 872 697 583 b 661 350 678 343 667 342 b 557 1074 635 582 583 896 b 538 1092 556 1086 550 1092 b 408 1092 503 1093 447 1093 b 390 1074 396 1092 392 1086 b 294 358 372 901 324 596 b 278 350 294 343 283 340 b 207 1074 258 586 221 897 b 188 1092 206 1086 200 1092 l 44 1092 b 26 1072 31 1092 26 1086 b 153 17 47 818 113 379 b 172 -1 154 6 160 0 z m 369 1147 l 454 1147 b 479 1161 465 1147 472 1151 l 569 1329 b 560 1346 576 1342 574 1346 l 454 1346 b 431 1331 443 1346 436 1342 l 358 1164 b 369 1147 353 1151 357 1147 z "},"Ŵ":{"ha":925,"x_min":0,"x_max":0,"o":"m 172 -1 b 336 -1 215 -3 292 -3 b 356 17 349 0 354 4 b 449 721 385 222 422 515 b 467 729 449 736 461 739 b 581 17 493 521 547 201 b 601 -1 583 4 589 0 b 757 -1 643 -3 714 -3 b 776 17 769 0 775 6 b 901 1074 806 290 879 796 b 885 1093 903 1086 897 1092 l 760 1092 b 742 1074 749 1092 743 1086 b 676 358 725 872 697 583 b 661 350 678 343 667 342 b 557 1074 635 582 583 896 b 538 1092 556 1086 550 1092 b 408 1092 503 1093 447 1093 b 390 1074 396 1092 392 1086 b 294 358 372 901 324 596 b 278 350 294 343 283 340 b 207 1074 258 586 221 897 b 188 1092 206 1086 200 1092 l 44 1092 b 26 1072 31 1092 26 1086 b 153 17 47 818 113 379 b 172 -1 154 6 160 0 z m 365 1331 l 279 1161 b 289 1146 272 1150 275 1146 l 381 1146 b 404 1161 392 1146 399 1150 l 440 1233 l 476 1161 b 501 1146 482 1150 489 1146 l 592 1146 b 601 1163 604 1146 608 1150 l 517 1331 b 492 1346 511 1342 504 1346 l 390 1346 b 365 1331 378 1346 371 1342 z "},"Ẅ":{"ha":925,"x_min":0,"x_max":0,"o":"m 172 -1 b 336 -1 215 -3 292 -3 b 356 17 349 0 354 4 b 449 721 385 222 422 515 b 467 729 449 736 461 739 b 581 17 493 521 547 201 b 601 -1 583 4 589 0 b 757 -1 643 -3 714 -3 b 776 17 769 0 775 6 b 901 1074 806 290 879 796 b 885 1093 903 1086 897 1092 l 760 1092 b 742 1074 749 1092 743 1086 b 676 358 725 872 697 583 b 661 350 678 343 667 342 b 557 1074 635 582 583 896 b 538 1092 556 1086 550 1092 b 408 1092 503 1093 447 1093 b 390 1074 396 1092 392 1086 b 294 358 372 901 324 596 b 278 350 294 343 283 340 b 207 1074 258 586 221 897 b 188 1092 206 1086 200 1092 l 44 1092 b 26 1072 31 1092 26 1086 b 153 17 47 818 113 379 b 172 -1 154 6 160 0 z m 481 1158 l 579 1158 b 600 1178 593 1158 600 1164 l 600 1293 b 579 1313 600 1307 594 1313 l 481 1313 b 461 1293 467 1313 461 1307 l 461 1178 b 481 1158 461 1164 467 1158 z m 307 1158 l 403 1158 b 424 1178 417 1158 424 1164 l 424 1293 b 403 1313 424 1307 418 1313 l 307 1313 b 286 1293 292 1313 286 1307 l 286 1178 b 307 1158 286 1164 292 1158 z "},"Ẁ":{"ha":925,"x_min":0,"x_max":0,"o":"m 172 -1 b 336 -1 215 -3 292 -3 b 356 17 349 0 354 4 b 449 721 385 222 422 515 b 467 729 449 736 461 739 b 581 17 493 521 547 201 b 601 -1 583 4 589 0 b 757 -1 643 -3 714 -3 b 776 17 769 0 775 6 b 901 1074 806 290 879 796 b 885 1093 903 1086 897 1092 l 760 1092 b 742 1074 749 1092 743 1086 b 676 358 725 872 697 583 b 661 350 678 343 667 342 b 557 1074 635 582 583 896 b 538 1092 556 1086 550 1092 b 408 1092 503 1093 447 1093 b 390 1074 396 1092 392 1086 b 294 358 372 901 324 596 b 278 350 294 343 283 340 b 207 1074 258 586 221 897 b 188 1092 206 1086 200 1092 l 44 1092 b 26 1072 31 1092 26 1086 b 153 17 47 818 113 379 b 172 -1 154 6 160 0 z m 521 1164 l 454 1331 b 432 1346 450 1342 443 1346 l 324 1346 b 314 1329 310 1346 307 1342 l 399 1161 b 424 1146 404 1151 411 1146 l 508 1146 b 521 1164 522 1146 525 1151 z "},"X":{"ha":582,"x_min":0,"x_max":0,"o":"m 26 0 l 174 0 b 193 17 186 0 192 4 b 271 411 211 115 244 282 b 292 417 271 421 288 422 b 376 17 319 288 356 135 b 396 0 378 4 385 0 b 553 0 446 -3 504 -1 b 568 18 567 0 571 6 b 433 553 538 171 471 403 b 433 593 429 568 431 579 b 571 1072 471 721 538 921 b 557 1090 574 1086 569 1090 l 415 1090 b 394 1074 403 1090 397 1086 b 325 774 382 1011 351 872 b 299 768 324 763 303 763 b 226 1075 275 863 244 993 b 206 1092 224 1086 218 1092 b 39 1092 158 1093 82 1093 b 24 1072 25 1090 21 1085 b 150 632 50 968 114 761 b 150 592 154 617 154 606 b 13 18 107 429 46 179 b 26 0 10 6 14 0 z "},"Y":{"ha":575,"x_min":0,"x_max":0,"o":"m 218 0 b 364 0 260 -1 322 -1 b 385 21 379 1 385 7 b 382 357 385 104 385 247 b 386 385 382 367 383 375 b 575 1072 467 613 539 886 b 560 1092 576 1086 572 1092 b 419 1092 514 1093 460 1093 b 399 1074 407 1092 401 1086 b 315 692 381 965 346 801 b 286 686 314 682 290 681 b 196 1074 256 797 222 950 b 176 1092 194 1086 188 1090 l 19 1092 b 4 1072 7 1090 1 1086 b 193 397 36 893 124 622 b 197 368 196 388 197 379 l 197 21 b 218 0 197 7 203 1 z "},"Ý":{"ha":575,"x_min":0,"x_max":0,"o":"m 218 0 b 364 0 260 -1 322 -1 b 385 21 379 1 385 7 b 382 357 385 104 385 247 b 386 385 382 367 383 375 b 575 1072 467 613 539 886 b 560 1092 576 1086 572 1092 b 419 1092 514 1093 460 1093 b 399 1074 407 1092 401 1086 b 315 692 381 965 346 801 b 286 686 314 682 290 681 b 196 1074 256 797 222 950 b 176 1092 194 1086 188 1090 l 19 1092 b 4 1072 7 1090 1 1086 b 193 397 36 893 124 622 b 197 368 196 388 197 379 l 197 21 b 218 0 197 7 203 1 z m 213 1147 l 297 1147 b 322 1161 308 1147 315 1151 l 413 1329 b 403 1346 419 1342 417 1346 l 297 1346 b 274 1331 286 1346 279 1342 l 201 1164 b 213 1147 196 1151 200 1147 z "},"Ŷ":{"ha":575,"x_min":0,"x_max":0,"o":"m 218 0 b 364 0 260 -1 322 -1 b 385 21 379 1 385 7 b 382 357 385 104 385 247 b 386 385 382 367 383 375 b 575 1072 467 613 539 886 b 560 1092 576 1086 572 1092 b 419 1092 514 1093 460 1093 b 399 1074 407 1092 401 1086 b 315 692 381 965 346 801 b 286 686 314 682 290 681 b 196 1074 256 797 222 950 b 176 1092 194 1086 188 1090 l 19 1092 b 4 1072 7 1090 1 1086 b 193 397 36 893 124 622 b 197 368 196 388 197 379 l 197 21 b 218 0 197 7 203 1 z m 210 1331 l 124 1161 b 133 1146 117 1150 119 1146 l 225 1146 b 249 1161 236 1146 243 1150 l 285 1233 l 321 1161 b 346 1146 326 1150 333 1146 l 436 1146 b 446 1163 449 1146 453 1150 l 361 1331 b 336 1346 356 1342 349 1346 l 235 1346 b 210 1331 222 1346 215 1342 z "},"Ÿ":{"ha":575,"x_min":0,"x_max":0,"o":"m 218 0 b 364 0 260 -1 322 -1 b 385 21 379 1 385 7 b 382 357 385 104 385 247 b 386 385 382 367 383 375 b 575 1072 467 613 539 886 b 560 1092 576 1086 572 1092 b 419 1092 514 1093 460 1093 b 399 1074 407 1092 401 1086 b 315 692 381 965 346 801 b 286 686 314 682 290 681 b 196 1074 256 797 222 950 b 176 1092 194 1086 188 1090 l 19 1092 b 4 1072 7 1090 1 1086 b 193 397 36 893 124 622 b 197 368 196 388 197 379 l 197 21 b 218 0 197 7 203 1 z m 325 1158 l 424 1158 b 444 1178 438 1158 444 1164 l 444 1293 b 424 1313 444 1307 439 1313 l 325 1313 b 306 1293 311 1313 306 1307 l 306 1178 b 325 1158 306 1164 311 1158 z m 151 1158 l 247 1158 b 268 1178 261 1158 268 1164 l 268 1293 b 247 1313 268 1307 263 1313 l 151 1313 b 131 1293 136 1313 131 1307 l 131 1178 b 151 1158 131 1164 136 1158 z "},"Ỳ":{"ha":575,"x_min":0,"x_max":0,"o":"m 218 0 b 364 0 260 -1 322 -1 b 385 21 379 1 385 7 b 382 357 385 104 385 247 b 386 385 382 367 383 375 b 575 1072 467 613 539 886 b 560 1092 576 1086 572 1092 b 419 1092 514 1093 460 1093 b 399 1074 407 1092 401 1086 b 315 692 381 965 346 801 b 286 686 314 682 290 681 b 196 1074 256 797 222 950 b 176 1092 194 1086 188 1090 l 19 1092 b 4 1072 7 1090 1 1086 b 193 397 36 893 124 622 b 197 368 196 388 197 379 l 197 21 b 218 0 197 7 203 1 z m 365 1164 l 299 1331 b 276 1346 294 1342 288 1346 l 168 1346 b 158 1329 154 1346 151 1342 l 243 1161 b 268 1146 249 1151 256 1146 l 353 1146 b 365 1164 367 1146 369 1151 z "},"Z":{"ha":499,"x_min":0,"x_max":0,"o":"m 49 0 b 450 0 114 -1 276 -1 b 471 21 465 0 471 6 l 472 144 b 453 165 474 158 468 165 l 251 163 b 239 179 239 163 235 168 b 458 911 308 410 389 686 b 464 944 463 922 464 932 l 464 1071 b 443 1092 464 1085 458 1090 l 47 1092 b 26 1071 33 1090 26 1085 l 26 946 b 47 926 26 932 32 926 l 239 928 b 250 911 251 928 254 924 b 33 189 189 739 99 392 b 28 157 29 178 28 168 l 28 21 b 49 0 28 6 33 0 z "},"a":{"ha":546,"x_min":0,"x_max":0,"o":"m 183 -11 b 318 44 232 -11 268 3 b 347 33 335 58 343 54 l 349 21 b 371 0 350 6 357 0 l 483 0 b 503 21 497 0 503 6 l 503 656 b 453 897 503 793 488 863 b 281 943 421 928 364 943 b 90 894 185 943 122 926 b 32 678 61 865 43 799 b 50 657 31 663 36 657 b 185 657 90 656 146 656 b 207 679 199 658 206 664 b 229 781 213 744 218 771 b 271 796 238 790 251 796 b 311 782 290 796 303 792 b 328 682 322 772 328 744 l 328 632 b 314 613 328 622 324 617 l 214 578 b 86 513 147 554 110 535 b 29 283 42 468 29 414 b 74 21 29 107 39 57 b 183 -11 96 0 133 -11 z m 244 150 b 215 161 228 150 222 154 b 201 282 206 172 201 189 b 225 413 201 363 208 396 b 271 440 233 422 249 431 l 314 460 b 328 450 324 463 328 461 b 294 176 332 217 329 211 b 244 150 274 157 258 150 z "},"á":{"ha":546,"x_min":0,"x_max":0,"o":"m 183 -11 b 318 44 232 -11 268 3 b 347 33 335 58 343 54 l 349 21 b 371 0 350 6 357 0 l 483 0 b 503 21 497 0 503 6 l 503 656 b 453 897 503 793 488 863 b 281 943 421 928 364 943 b 90 894 185 943 122 926 b 32 678 61 865 43 799 b 50 657 31 663 36 657 b 185 657 90 656 146 656 b 207 679 199 658 206 664 b 229 781 213 744 218 771 b 271 796 238 790 251 796 b 311 782 290 796 303 792 b 328 682 322 772 328 744 l 328 632 b 314 613 328 622 324 617 l 214 578 b 86 513 147 554 110 535 b 29 283 42 468 29 414 b 74 21 29 107 39 57 b 183 -11 96 0 133 -11 z m 244 150 b 215 161 228 150 222 154 b 201 282 206 172 201 189 b 225 413 201 363 208 396 b 271 440 233 422 249 431 l 314 460 b 328 450 324 463 328 461 b 294 176 332 217 329 211 b 244 150 274 157 258 150 z m 201 983 l 285 983 b 310 996 296 983 303 988 l 400 1163 b 390 1179 407 1175 404 1179 l 285 1179 b 263 1164 275 1179 268 1175 l 190 999 b 201 983 185 988 189 983 z "},"â":{"ha":546,"x_min":0,"x_max":0,"o":"m 183 -11 b 318 44 232 -11 268 3 b 347 33 335 58 343 54 l 349 21 b 371 0 350 6 357 0 l 483 0 b 503 21 497 0 503 6 l 503 656 b 453 897 503 793 488 863 b 281 943 421 928 364 943 b 90 894 185 943 122 926 b 32 678 61 865 43 799 b 50 657 31 663 36 657 b 185 657 90 656 146 656 b 207 679 199 658 206 664 b 229 781 213 744 218 771 b 271 796 238 790 251 796 b 311 782 290 796 303 792 b 328 682 322 772 328 744 l 328 632 b 314 613 328 622 324 617 l 214 578 b 86 513 147 554 110 535 b 29 283 42 468 29 414 b 74 21 29 107 39 57 b 183 -11 96 0 133 -11 z m 244 150 b 215 161 228 150 222 154 b 201 282 206 172 201 189 b 225 413 201 363 208 396 b 271 440 233 422 249 431 l 314 460 b 328 450 324 463 328 461 b 294 176 332 217 329 211 b 244 150 274 157 258 150 z m 197 1164 l 113 996 b 122 982 106 986 108 982 l 213 982 b 236 996 224 982 231 986 l 272 1068 l 308 996 b 333 982 314 986 321 982 l 422 982 b 432 997 435 982 439 986 l 349 1164 b 324 1179 343 1175 336 1179 l 222 1179 b 197 1164 210 1179 203 1175 z "},"ä":{"ha":546,"x_min":0,"x_max":0,"o":"m 183 -11 b 318 44 232 -11 268 3 b 347 33 335 58 343 54 l 349 21 b 371 0 350 6 357 0 l 483 0 b 503 21 497 0 503 6 l 503 656 b 453 897 503 793 488 863 b 281 943 421 928 364 943 b 90 894 185 943 122 926 b 32 678 61 865 43 799 b 50 657 31 663 36 657 b 185 657 90 656 146 656 b 207 679 199 658 206 664 b 229 781 213 744 218 771 b 271 796 238 790 251 796 b 311 782 290 796 303 792 b 328 682 322 772 328 744 l 328 632 b 314 613 328 622 324 617 l 214 578 b 86 513 147 554 110 535 b 29 283 42 468 29 414 b 74 21 29 107 39 57 b 183 -11 96 0 133 -11 z m 244 150 b 215 161 228 150 222 154 b 201 282 206 172 201 189 b 225 413 201 363 208 396 b 271 440 233 422 249 431 l 314 460 b 328 450 324 463 328 461 b 294 176 332 217 329 211 b 244 150 274 157 258 150 z m 313 993 l 410 993 b 431 1013 424 993 431 999 l 431 1126 b 410 1146 431 1140 425 1146 l 313 1146 b 293 1126 299 1146 293 1140 l 293 1013 b 313 993 293 999 299 993 z m 140 993 l 235 993 b 256 1013 249 993 256 999 l 256 1126 b 235 1146 256 1140 250 1146 l 140 1146 b 119 1126 125 1146 119 1140 l 119 1013 b 140 993 119 999 125 993 z "},"à":{"ha":546,"x_min":0,"x_max":0,"o":"m 183 -11 b 318 44 232 -11 268 3 b 347 33 335 58 343 54 l 349 21 b 371 0 350 6 357 0 l 483 0 b 503 21 497 0 503 6 l 503 656 b 453 897 503 793 488 863 b 281 943 421 928 364 943 b 90 894 185 943 122 926 b 32 678 61 865 43 799 b 50 657 31 663 36 657 b 185 657 90 656 146 656 b 207 679 199 658 206 664 b 229 781 213 744 218 771 b 271 796 238 790 251 796 b 311 782 290 796 303 792 b 328 682 322 772 328 744 l 328 632 b 314 613 328 622 324 617 l 214 578 b 86 513 147 554 110 535 b 29 283 42 468 29 414 b 74 21 29 107 39 57 b 183 -11 96 0 133 -11 z m 244 150 b 215 161 228 150 222 154 b 201 282 206 172 201 189 b 225 413 201 363 208 396 b 271 440 233 422 249 431 l 314 460 b 328 450 324 463 328 461 b 294 176 332 217 329 211 b 244 150 274 157 258 150 z m 353 999 l 286 1164 b 264 1179 282 1175 275 1179 l 157 1179 b 147 1163 143 1179 140 1175 l 231 996 b 256 982 236 988 243 982 l 340 982 b 353 999 354 982 357 988 z "},"å":{"ha":546,"x_min":0,"x_max":0,"o":"m 183 -11 b 318 44 232 -11 268 3 b 347 33 335 58 343 54 l 349 21 b 371 0 350 6 357 0 l 483 0 b 503 21 497 0 503 6 l 503 656 b 453 897 503 793 488 863 b 281 943 421 928 364 943 b 90 894 185 943 122 926 b 32 678 61 865 43 799 b 50 657 31 663 36 657 b 185 657 90 656 146 656 b 207 679 199 658 206 664 b 229 781 213 744 218 771 b 271 796 238 790 251 796 b 311 782 290 796 303 792 b 328 682 322 772 328 744 l 328 632 b 314 613 328 622 324 617 l 214 578 b 86 513 147 554 110 535 b 29 283 42 468 29 414 b 74 21 29 107 39 57 b 183 -11 96 0 133 -11 z m 244 150 b 215 161 228 150 222 154 b 201 282 206 172 201 189 b 225 413 201 363 208 396 b 271 440 233 422 249 431 l 314 460 b 328 450 324 463 328 461 b 294 176 332 217 329 211 b 244 150 274 157 258 150 z m 275 961 b 404 1092 354 961 404 1014 b 275 1222 404 1167 354 1222 b 144 1092 196 1222 144 1167 b 275 961 144 1015 196 961 z m 275 1042 b 242 1092 254 1042 243 1057 b 275 1139 243 1124 254 1139 b 307 1092 294 1139 307 1124 b 275 1042 307 1057 294 1042 z "},"ã":{"ha":546,"x_min":0,"x_max":0,"o":"m 183 -11 b 318 44 232 -11 268 3 b 347 33 335 58 343 54 l 349 21 b 371 0 350 6 357 0 l 483 0 b 503 21 497 0 503 6 l 503 656 b 453 897 503 793 488 863 b 281 943 421 928 364 943 b 90 894 185 943 122 926 b 32 678 61 865 43 799 b 50 657 31 663 36 657 b 185 657 90 656 146 656 b 207 679 199 658 206 664 b 229 781 213 744 218 771 b 271 796 238 790 251 796 b 311 782 290 796 303 792 b 328 682 322 772 328 744 l 328 632 b 314 613 328 622 324 617 l 214 578 b 86 513 147 554 110 535 b 29 283 42 468 29 414 b 74 21 29 107 39 57 b 183 -11 96 0 133 -11 z m 244 150 b 215 161 228 150 222 154 b 201 282 206 172 201 189 b 225 413 201 363 208 396 b 271 440 233 422 249 431 l 314 460 b 328 450 324 463 328 461 b 294 176 332 217 329 211 b 244 150 274 157 258 150 z m 350 976 b 417 1001 378 976 400 986 b 428 1032 425 1011 428 1019 l 428 1110 b 415 1115 428 1121 424 1122 b 353 1089 392 1094 381 1089 b 292 1106 333 1089 314 1097 b 213 1124 269 1115 243 1124 b 143 1099 186 1124 161 1115 b 132 1068 135 1089 132 1081 l 132 990 b 146 985 132 978 136 975 b 208 1011 171 1007 185 1011 b 271 994 229 1011 249 1003 b 350 976 294 986 319 976 z "},"æ":{"ha":840,"x_min":0,"x_max":0,"o":"m 183 -11 b 318 44 232 -11 268 3 b 347 33 335 58 343 54 l 349 21 b 371 0 350 6 357 0 l 444 0 b 575 -15 476 -10 518 -15 b 750 25 669 -15 722 -3 b 818 313 789 61 810 147 b 799 333 818 326 814 332 b 668 333 763 333 711 335 b 646 314 653 333 647 328 b 619 151 639 194 632 165 b 576 138 610 144 597 138 b 525 154 553 138 538 143 b 503 272 511 168 507 190 l 503 442 b 513 444 506 443 508 444 l 800 446 b 819 467 814 446 819 451 b 751 899 817 803 793 858 b 574 942 722 929 668 942 b 425 917 504 942 457 933 b 281 943 392 935 343 943 b 90 894 185 943 122 926 b 32 678 61 865 43 799 b 50 657 31 663 36 657 b 185 657 90 656 146 656 b 207 679 199 658 206 664 b 229 781 213 744 218 771 b 271 796 238 790 251 796 b 311 782 290 796 303 792 b 328 682 322 772 328 744 l 328 635 l 328 628 b 314 613 326 621 322 617 l 214 578 b 86 513 147 554 110 535 b 29 283 42 468 29 414 b 74 21 29 107 39 57 b 183 -11 96 0 133 -11 z m 244 150 b 215 161 228 150 222 154 b 201 282 206 172 201 189 b 225 413 201 363 208 396 b 271 440 233 422 249 431 l 314 460 b 324 461 318 461 321 461 l 324 457 b 328 263 324 379 325 315 b 294 176 325 207 315 197 b 244 150 274 157 258 150 z m 503 586 l 503 656 l 503 672 b 524 776 506 736 513 764 b 571 792 533 786 549 792 b 619 776 593 792 610 786 b 646 597 633 763 640 722 b 632 583 646 588 643 583 l 514 582 b 503 586 508 582 506 583 z "},"b":{"ha":578,"x_min":0,"x_max":0,"o":"m 371 -14 b 483 24 426 -14 458 -1 b 543 483 528 71 543 165 b 485 906 543 774 529 858 b 371 943 461 929 426 943 b 244 892 331 943 294 928 b 217 904 226 878 218 882 l 219 1133 b 199 1153 219 1147 214 1153 l 69 1153 b 49 1133 56 1153 49 1147 l 46 511 b 47 21 46 283 46 143 b 68 0 47 6 53 0 l 172 0 b 194 21 186 0 193 6 l 194 24 b 225 39 197 44 207 50 b 371 -14 285 0 310 -14 z m 310 147 b 256 171 292 147 272 154 b 218 472 226 201 218 213 b 249 758 218 714 221 731 b 297 778 260 769 278 778 b 344 764 319 778 335 774 b 368 476 363 746 368 701 b 346 163 368 222 363 179 b 310 147 335 151 322 147 z "},"c":{"ha":556,"x_min":0,"x_max":0,"o":"m 281 -17 b 468 33 388 -17 439 3 b 528 357 504 69 519 103 b 508 378 529 371 524 378 l 376 379 b 356 358 363 379 356 372 b 331 153 350 206 344 167 b 282 138 319 142 303 138 b 232 153 261 138 243 142 b 208 471 215 169 208 221 b 233 775 208 704 217 756 b 281 792 244 786 261 792 b 329 775 304 792 318 786 b 357 593 343 761 349 726 b 379 572 358 579 364 572 l 511 572 b 531 593 525 572 532 578 b 467 894 521 815 504 857 b 281 943 439 922 388 943 b 99 893 181 943 129 924 b 32 472 53 846 32 754 b 96 35 32 174 53 81 b 281 -17 128 4 175 -17 z "},"ç":{"ha":556,"x_min":0,"x_max":0,"o":"m 32 472 b 96 35 32 174 53 81 b 211 -12 119 13 151 -6 l 156 -176 b 168 -193 151 -187 156 -193 l 268 -193 b 290 -178 281 -193 288 -187 l 333 -15 b 468 33 406 -10 444 8 b 528 357 504 69 519 103 b 508 378 529 371 524 378 l 376 379 b 356 358 363 379 356 372 b 331 153 350 206 344 167 b 282 138 319 142 303 138 b 232 153 261 138 243 142 b 208 471 215 169 208 221 b 233 775 208 704 217 756 b 281 792 244 786 261 792 b 329 775 304 792 318 786 b 357 593 343 761 349 726 b 379 572 358 579 364 572 l 511 572 b 531 593 525 572 532 578 b 467 894 521 815 504 857 b 281 943 439 922 388 943 b 99 893 181 943 129 924 b 32 472 53 846 32 754 z "},"d":{"ha":578,"x_min":0,"x_max":0,"o":"m 207 -14 b 353 39 268 -14 293 0 b 383 24 371 50 381 44 l 383 21 b 406 0 385 6 392 0 l 510 0 b 531 21 525 0 531 6 b 532 511 532 143 532 283 l 529 1133 b 508 1153 529 1147 522 1153 l 379 1153 b 358 1133 364 1153 358 1147 l 361 904 b 333 892 360 882 351 878 b 207 943 283 928 247 943 b 93 906 151 943 117 929 b 35 483 49 858 35 774 b 94 24 35 165 50 71 b 207 -14 119 -1 151 -14 z m 268 147 b 232 163 256 147 243 151 b 210 476 215 179 210 222 b 233 764 210 701 215 746 b 281 778 243 774 258 778 b 329 758 300 778 318 769 b 360 472 357 731 360 714 b 322 171 360 213 351 201 b 268 147 306 154 286 147 z "},"e":{"ha":550,"x_min":0,"x_max":0,"o":"m 282 -15 b 457 25 376 -15 429 -3 b 525 313 496 61 517 147 b 506 333 525 326 521 332 b 375 333 469 333 418 335 b 353 314 360 333 354 328 b 326 151 346 194 339 165 b 283 138 317 144 304 138 b 232 154 260 138 244 143 b 206 431 213 174 210 215 b 219 444 206 440 210 444 l 507 446 b 526 467 521 446 526 451 b 458 899 524 803 500 858 b 281 942 429 929 375 942 b 104 897 189 942 135 928 b 31 457 50 844 32 746 b 103 29 29 176 50 82 b 282 -15 132 -1 186 -15 z m 207 596 b 231 776 210 715 215 760 b 278 792 240 786 256 792 b 326 776 300 792 317 786 b 353 597 340 763 347 722 b 339 583 353 588 350 583 l 221 582 b 207 596 211 582 207 586 z "},"é":{"ha":550,"x_min":0,"x_max":0,"o":"m 282 -15 b 457 25 376 -15 429 -3 b 525 313 496 61 517 147 b 506 333 525 326 521 332 b 375 333 469 333 418 335 b 353 314 360 333 354 328 b 326 151 346 194 339 165 b 283 138 317 144 304 138 b 232 154 260 138 244 143 b 206 431 213 174 210 215 b 219 444 206 440 210 444 l 507 446 b 526 467 521 446 526 451 b 458 899 524 803 500 858 b 281 942 429 929 375 942 b 104 897 189 942 135 928 b 31 457 50 844 32 746 b 103 29 29 176 50 82 b 282 -15 132 -1 186 -15 z m 207 596 b 231 776 210 715 215 760 b 278 792 240 786 256 792 b 326 776 300 792 317 786 b 353 597 340 763 347 722 b 339 583 353 588 350 583 l 221 582 b 207 596 211 582 207 586 z m 206 983 l 289 983 b 314 996 300 983 307 988 l 404 1163 b 394 1179 411 1175 408 1179 l 289 1179 b 267 1164 279 1179 272 1175 l 194 999 b 206 983 189 988 193 983 z "},"ê":{"ha":550,"x_min":0,"x_max":0,"o":"m 282 -15 b 457 25 376 -15 429 -3 b 525 313 496 61 517 147 b 506 333 525 326 521 332 b 375 333 469 333 418 335 b 353 314 360 333 354 328 b 326 151 346 194 339 165 b 283 138 317 144 304 138 b 232 154 260 138 244 143 b 206 431 213 174 210 215 b 219 444 206 440 210 444 l 507 446 b 526 467 521 446 526 451 b 458 899 524 803 500 858 b 281 942 429 929 375 942 b 104 897 189 942 135 928 b 31 457 50 844 32 746 b 103 29 29 176 50 82 b 282 -15 132 -1 186 -15 z m 207 596 b 231 776 210 715 215 760 b 278 792 240 786 256 792 b 326 776 300 792 317 786 b 353 597 340 763 347 722 b 339 583 353 588 350 583 l 221 582 b 207 596 211 582 207 586 z m 201 1164 l 117 996 b 126 982 110 986 113 982 l 217 982 b 240 996 228 982 235 986 l 276 1068 l 313 996 b 338 982 318 986 325 982 l 426 982 b 436 997 439 982 443 986 l 353 1164 b 328 1179 347 1175 340 1179 l 226 1179 b 201 1164 214 1179 207 1175 z "},"ë":{"ha":550,"x_min":0,"x_max":0,"o":"m 282 -15 b 457 25 376 -15 429 -3 b 525 313 496 61 517 147 b 506 333 525 326 521 332 b 375 333 469 333 418 335 b 353 314 360 333 354 328 b 326 151 346 194 339 165 b 283 138 317 144 304 138 b 232 154 260 138 244 143 b 206 431 213 174 210 215 b 219 444 206 440 210 444 l 507 446 b 526 467 521 446 526 451 b 458 899 524 803 500 858 b 281 942 429 929 375 942 b 104 897 189 942 135 928 b 31 457 50 844 32 746 b 103 29 29 176 50 82 b 282 -15 132 -1 186 -15 z m 207 596 b 231 776 210 715 215 760 b 278 792 240 786 256 792 b 326 776 300 792 317 786 b 353 597 340 763 347 722 b 339 583 353 588 350 583 l 221 582 b 207 596 211 582 207 586 z m 317 993 l 414 993 b 435 1013 428 993 435 999 l 435 1126 b 414 1146 435 1140 429 1146 l 317 1146 b 297 1126 303 1146 297 1140 l 297 1013 b 317 993 297 999 303 993 z m 144 993 l 239 993 b 260 1013 253 993 260 999 l 260 1126 b 239 1146 260 1140 254 1146 l 144 1146 b 124 1126 129 1146 124 1140 l 124 1013 b 144 993 124 999 129 993 z "},"è":{"ha":550,"x_min":0,"x_max":0,"o":"m 282 -15 b 457 25 376 -15 429 -3 b 525 313 496 61 517 147 b 506 333 525 326 521 332 b 375 333 469 333 418 335 b 353 314 360 333 354 328 b 326 151 346 194 339 165 b 283 138 317 144 304 138 b 232 154 260 138 244 143 b 206 431 213 174 210 215 b 219 444 206 440 210 444 l 507 446 b 526 467 521 446 526 451 b 458 899 524 803 500 858 b 281 942 429 929 375 942 b 104 897 189 942 135 928 b 31 457 50 844 32 746 b 103 29 29 176 50 82 b 282 -15 132 -1 186 -15 z m 207 596 b 231 776 210 715 215 760 b 278 792 240 786 256 792 b 326 776 300 792 317 786 b 353 597 340 763 347 722 b 339 583 353 588 350 583 l 221 582 b 207 596 211 582 207 586 z m 357 999 l 290 1164 b 268 1179 286 1175 279 1179 l 161 1179 b 151 1163 147 1179 144 1175 l 235 996 b 260 982 240 988 247 982 l 344 982 b 357 999 358 982 361 988 z "},"f":{"ha":431,"x_min":0,"x_max":0,"o":"m 128 0 l 261 0 b 281 21 275 0 281 6 l 278 760 b 293 775 278 771 282 775 l 397 775 b 418 794 411 775 418 781 l 418 907 b 397 928 418 921 413 928 l 292 928 b 276 942 282 928 276 932 l 276 978 b 329 1018 276 1006 290 1018 b 408 1015 360 1018 389 1017 b 429 1033 422 1014 429 1018 l 429 1135 b 408 1158 429 1149 424 1156 b 297 1163 379 1161 335 1163 b 110 1004 171 1163 110 1097 l 110 942 b 96 928 110 932 106 928 l 29 928 b 10 907 15 928 10 922 l 10 794 b 29 775 10 781 15 775 l 96 775 b 110 760 106 775 110 771 l 107 21 b 128 0 107 6 113 0 z "},"g":{"ha":539,"x_min":0,"x_max":0,"o":"m 267 -272 b 504 -210 399 -272 467 -253 b 549 -54 535 -178 549 -128 b 503 97 549 15 532 67 b 328 161 476 124 425 150 b 219 188 250 169 226 179 b 207 217 211 196 207 204 b 231 292 207 235 214 258 b 256 307 236 303 244 307 l 281 307 b 440 351 365 307 413 322 b 515 632 481 390 515 439 b 454 893 515 775 493 857 b 432 910 446 901 439 906 b 424 929 426 914 424 919 b 460 968 424 957 436 968 l 485 968 b 506 989 500 968 506 974 l 504 1114 b 485 1135 504 1129 499 1135 b 360 1101 414 1133 382 1124 b 314 954 335 1078 324 1040 b 299 940 314 944 308 940 b 264 942 288 942 276 942 b 99 897 185 942 129 926 b 25 629 49 850 25 768 b 101 342 25 475 49 388 b 106 314 113 333 114 325 b 33 144 53 236 33 189 b 69 61 33 111 46 83 b 74 31 81 51 81 43 b 18 -125 36 -28 18 -76 b 47 -218 18 -167 26 -197 b 267 -272 81 -251 144 -272 z m 282 -136 b 188 -111 232 -136 201 -128 b 175 -69 179 -103 175 -93 b 193 4 175 -44 181 -21 b 215 17 197 14 204 18 b 288 7 236 15 258 11 b 371 -21 335 -1 360 -10 b 386 -68 381 -32 386 -44 b 374 -112 386 -89 382 -104 b 282 -136 357 -129 328 -136 z m 271 457 b 222 471 249 457 233 460 b 196 626 204 489 196 532 b 221 778 196 717 204 760 b 271 793 232 788 249 793 b 318 778 292 793 307 790 b 344 629 335 758 344 717 b 318 472 344 532 335 489 b 271 457 307 461 293 457 z "},"h":{"ha":571,"x_min":0,"x_max":0,"o":"m 67 0 l 200 0 b 219 21 214 0 219 6 b 219 526 219 158 218 351 b 247 757 219 721 226 736 b 296 776 258 768 272 776 b 338 764 318 776 331 772 b 351 506 351 750 351 738 l 350 21 b 371 0 350 6 356 0 l 506 0 b 526 21 519 0 526 6 l 526 492 b 486 910 526 821 526 871 b 368 943 464 931 428 943 b 239 892 314 942 285 929 b 213 904 221 878 214 881 l 215 1133 b 196 1153 215 1147 210 1153 l 69 1153 b 49 1133 54 1153 49 1147 l 46 465 l 46 21 b 67 0 46 6 51 0 z "},"i":{"ha":267,"x_min":0,"x_max":0,"o":"m 68 0 l 197 0 b 218 21 213 0 218 6 b 218 907 219 244 219 675 b 197 928 218 921 213 928 l 68 928 b 47 907 54 928 47 922 b 47 21 46 686 46 228 b 68 0 47 6 54 0 z m 68 988 l 199 988 b 219 1008 213 988 218 993 b 219 1138 221 1044 221 1099 b 199 1158 218 1153 213 1158 l 68 1158 b 47 1138 53 1158 47 1153 b 47 1008 46 1099 46 1046 b 68 988 47 994 53 988 z "},"ı":{"ha":271,"x_min":0,"x_max":0,"o":"m 63 0 l 208 0 b 219 13 215 0 219 4 b 219 901 222 238 221 669 b 208 914 219 910 217 914 l 63 914 b 50 901 54 914 50 910 b 50 13 49 682 47 218 b 63 0 50 4 54 0 z "},"í":{"ha":271,"x_min":0,"x_max":0,"o":"m 63 0 l 208 0 b 219 13 215 0 219 4 b 219 901 222 238 221 669 b 208 914 219 910 217 914 l 63 914 b 50 901 54 914 50 910 b 50 13 49 682 47 218 b 63 0 50 4 54 0 z m 64 971 l 147 971 b 172 983 158 971 165 975 l 263 1150 b 253 1167 269 1163 267 1167 l 147 1167 b 125 1151 138 1167 131 1163 l 53 986 b 64 971 47 975 51 971 z "},"î":{"ha":271,"x_min":0,"x_max":0,"o":"m 63 0 l 208 0 b 219 13 215 0 219 4 b 219 901 222 238 221 669 b 208 914 219 910 217 914 l 63 914 b 50 901 54 914 50 910 b 50 13 49 682 47 218 b 63 0 50 4 54 0 z m 60 1151 l -25 983 b -15 969 -32 974 -29 969 l 75 969 b 99 983 86 969 93 974 l 135 1056 l 171 983 b 196 969 176 974 183 969 l 285 969 b 294 985 297 969 301 974 l 211 1151 b 186 1167 206 1163 199 1167 l 85 1167 b 60 1151 72 1167 65 1163 z "},"ï":{"ha":271,"x_min":0,"x_max":0,"o":"m 63 0 l 208 0 b 219 13 215 0 219 4 b 219 901 222 238 221 669 b 208 914 219 910 217 914 l 63 914 b 50 901 54 914 50 910 b 50 13 49 682 47 218 b 63 0 50 4 54 0 z m 176 981 l 274 981 b 294 1000 288 981 294 986 l 294 1114 b 274 1133 294 1128 289 1133 l 176 1133 b 157 1114 163 1133 157 1128 l 157 1000 b 176 981 157 986 163 981 z m 4 981 l 99 981 b 119 1000 113 981 119 986 l 119 1114 b 99 1133 119 1128 114 1133 l 4 1133 b -17 1114 -11 1133 -17 1128 l -17 1000 b 4 981 -17 986 -11 981 z "},"ì":{"ha":271,"x_min":0,"x_max":0,"o":"m 63 0 l 208 0 b 219 13 215 0 219 4 b 219 901 222 238 221 669 b 208 914 219 910 217 914 l 63 914 b 50 901 54 914 50 910 b 50 13 49 682 47 218 b 63 0 50 4 54 0 z m 217 986 l 150 1151 b 128 1167 146 1163 139 1167 l 21 1167 b 11 1150 7 1167 4 1163 l 94 983 b 119 969 100 975 107 969 l 204 969 b 217 986 218 969 221 975 z "},"ĳ":{"ha":536,"x_min":0,"x_max":0,"o":"m 68 0 l 197 0 b 218 21 213 0 218 6 b 218 907 219 244 219 675 b 197 928 218 921 213 928 l 68 928 b 47 907 54 928 47 922 b 47 21 46 686 46 228 b 68 0 47 6 54 0 z m 68 988 l 199 988 b 219 1008 213 988 218 993 b 219 1138 221 1044 221 1099 b 199 1158 218 1153 213 1158 l 68 1158 b 47 1138 53 1158 47 1153 b 47 1008 46 1099 46 1046 b 68 988 47 994 53 988 z m 335 -251 b 489 -82 458 -251 489 -193 b 485 907 489 165 488 668 b 464 928 483 921 478 928 l 335 928 b 314 907 319 928 314 922 b 315 -57 313 642 315 206 b 274 -99 315 -87 308 -99 l 217 -96 b 197 -114 203 -94 196 -99 l 197 -222 b 218 -246 197 -237 203 -244 b 335 -251 251 -250 294 -251 z m 333 989 l 464 989 b 485 1008 478 989 485 994 b 485 1138 486 1043 486 1101 b 464 1158 485 1153 478 1158 l 335 1158 b 313 1138 321 1158 314 1153 b 313 1008 311 1103 311 1044 b 333 989 313 994 319 989 z "},"j":{"ha":272,"x_min":0,"x_max":0,"o":"m 71 -251 b 225 -82 194 -251 225 -193 b 221 907 225 165 224 668 b 200 928 219 921 214 928 l 71 928 b 50 907 56 928 50 922 b 51 -57 49 642 51 206 b 10 -99 51 -87 44 -99 l -47 -96 b -67 -114 -61 -94 -68 -99 l -67 -222 b -46 -246 -67 -237 -61 -244 b 71 -251 -12 -250 31 -251 z m 69 989 l 200 989 b 221 1008 214 989 221 994 b 221 1138 222 1043 222 1101 b 200 1158 221 1153 214 1158 l 71 1158 b 49 1138 57 1158 50 1153 b 49 1008 47 1103 47 1044 b 69 989 49 994 56 989 z "},"ȷ":{"ha":274,"x_min":0,"x_max":0,"o":"m 72 -247 b 225 -79 196 -247 225 -189 b 221 893 225 169 224 656 b 200 914 221 908 215 914 l 71 914 b 50 893 57 914 50 908 l 51 -56 b 10 -97 51 -85 46 -97 b -46 -93 -7 -97 -26 -96 b -65 -111 -60 -92 -65 -96 l -65 -218 b -44 -242 -65 -233 -60 -239 b 72 -247 -11 -246 32 -247 z "},"k":{"ha":542,"x_min":0,"x_max":0,"o":"m 68 0 l 203 0 b 224 21 218 0 224 6 l 221 439 b 242 450 219 454 235 458 b 351 17 281 314 317 163 b 372 0 354 4 360 0 l 525 0 b 539 18 539 0 543 6 b 389 540 488 197 431 407 b 390 572 385 551 385 561 b 535 910 436 671 496 803 b 522 928 539 922 535 928 l 371 928 b 349 911 360 928 353 922 b 242 628 315 822 282 724 b 218 626 239 617 221 619 b 224 1131 218 769 221 974 b 203 1151 224 1146 218 1151 l 68 1151 b 47 1131 53 1151 47 1146 b 47 21 46 764 46 363 b 68 0 47 6 53 0 z "},"l":{"ha":267,"x_min":0,"x_max":0,"o":"m 68 0 l 199 0 b 219 21 213 0 219 6 b 219 1133 221 325 221 843 b 199 1153 219 1147 214 1153 l 68 1153 b 47 1133 54 1153 49 1147 b 47 21 46 819 44 349 b 68 0 49 6 54 0 z "},"m":{"ha":857,"x_min":0,"x_max":0,"o":"m 67 0 l 200 0 b 221 21 214 0 221 6 l 219 542 b 247 760 219 721 224 736 b 292 776 258 771 271 776 b 332 765 311 776 322 774 b 344 544 343 754 344 735 b 343 21 346 340 343 161 b 364 0 343 6 349 0 l 497 0 b 518 21 511 0 518 6 l 518 544 b 546 761 518 722 524 739 b 590 776 556 771 569 776 b 628 765 607 776 619 775 b 642 547 639 754 642 739 l 642 21 b 661 0 642 6 647 0 l 794 0 b 814 21 808 0 814 6 l 815 554 b 775 910 815 840 813 872 b 660 943 753 932 721 943 b 521 883 599 943 565 924 b 493 888 508 871 501 872 b 368 943 469 928 439 943 b 238 889 311 943 282 929 b 208 901 219 875 211 878 l 207 907 b 185 928 206 921 200 928 l 68 928 b 47 907 54 928 49 922 l 46 513 l 47 21 b 67 0 47 6 53 0 z "},"n":{"ha":565,"x_min":0,"x_max":0,"o":"m 67 0 l 197 0 b 218 21 213 0 218 6 l 218 540 b 244 756 218 718 222 733 b 301 775 258 769 274 776 b 338 763 321 775 329 772 b 350 506 349 750 350 739 l 350 21 b 371 0 351 6 357 0 l 501 0 b 522 21 517 0 522 6 b 524 522 524 107 524 229 b 483 911 524 840 522 872 b 369 943 464 932 429 943 b 238 886 314 943 283 928 b 208 897 221 871 211 874 l 207 907 b 185 928 206 921 200 928 l 68 928 b 47 907 53 928 47 922 l 46 496 b 47 21 46 272 46 126 b 67 0 47 6 53 0 z "},"ñ":{"ha":565,"x_min":0,"x_max":0,"o":"m 67 0 l 197 0 b 218 21 213 0 218 6 l 218 540 b 244 756 218 718 222 733 b 301 775 258 769 274 776 b 338 763 321 775 329 772 b 350 506 349 750 350 739 l 350 21 b 371 0 351 6 357 0 l 501 0 b 522 21 517 0 522 6 b 524 522 524 107 524 229 b 483 911 524 840 522 872 b 369 943 464 932 429 943 b 238 886 314 943 283 928 b 208 897 221 871 211 874 l 207 907 b 185 928 206 921 200 928 l 68 928 b 47 907 53 928 47 922 l 46 496 b 47 21 46 272 46 126 b 67 0 47 6 53 0 z m 358 976 b 425 1001 386 976 408 986 b 436 1032 433 1011 436 1019 l 436 1110 b 424 1115 436 1121 432 1122 b 361 1089 400 1094 389 1089 b 300 1106 342 1089 322 1097 b 221 1124 278 1115 251 1124 b 151 1099 194 1124 169 1115 b 140 1068 143 1089 140 1081 l 140 990 b 154 985 140 978 144 975 b 217 1011 179 1007 193 1011 b 279 994 238 1011 257 1003 b 358 976 303 986 328 976 z "},"o":{"ha":571,"x_min":0,"x_max":0,"o":"m 283 -14 b 475 33 388 -14 442 0 b 539 475 519 81 539 190 b 475 896 539 747 519 851 b 283 943 440 931 386 944 b 97 894 185 942 131 926 b 32 475 50 849 32 746 b 96 35 32 189 50 81 b 283 -14 126 1 183 -14 z m 285 139 b 233 153 261 139 243 144 b 208 472 213 174 208 242 b 235 776 208 686 214 756 b 285 792 246 786 263 792 b 333 776 307 792 324 786 b 363 472 354 756 363 685 b 338 154 363 243 358 175 b 285 139 328 144 310 139 z "},"ó":{"ha":571,"x_min":0,"x_max":0,"o":"m 283 -14 b 475 33 388 -14 442 0 b 539 475 519 81 539 190 b 475 896 539 747 519 851 b 283 943 440 931 386 944 b 97 894 185 942 131 926 b 32 475 50 849 32 746 b 96 35 32 189 50 81 b 283 -14 126 1 183 -14 z m 285 139 b 233 153 261 139 243 144 b 208 472 213 174 208 242 b 235 776 208 686 214 756 b 285 792 246 786 263 792 b 333 776 307 792 324 786 b 363 472 354 756 363 685 b 338 154 363 243 358 175 b 285 139 328 144 310 139 z m 214 983 l 297 983 b 322 996 308 983 315 988 l 413 1163 b 403 1179 419 1175 417 1179 l 297 1179 b 275 1164 288 1179 281 1175 l 203 999 b 214 983 197 988 201 983 z "},"ô":{"ha":571,"x_min":0,"x_max":0,"o":"m 283 -14 b 475 33 388 -14 442 0 b 539 475 519 81 539 190 b 475 896 539 747 519 851 b 283 943 440 931 386 944 b 97 894 185 942 131 926 b 32 475 50 849 32 746 b 96 35 32 189 50 81 b 283 -14 126 1 183 -14 z m 285 139 b 233 153 261 139 243 144 b 208 472 213 174 208 242 b 235 776 208 686 214 756 b 285 792 246 786 263 792 b 333 776 307 792 324 786 b 363 472 354 756 363 685 b 338 154 363 243 358 175 b 285 139 328 144 310 139 z m 210 1164 l 125 996 b 135 982 118 986 121 982 l 225 982 b 249 996 236 982 243 986 l 285 1068 l 321 996 b 346 982 326 986 333 982 l 435 982 b 444 997 447 982 451 986 l 361 1164 b 336 1179 356 1175 349 1179 l 235 1179 b 210 1164 222 1179 215 1175 z "},"ö":{"ha":571,"x_min":0,"x_max":0,"o":"m 283 -14 b 475 33 388 -14 442 0 b 539 475 519 81 539 190 b 475 896 539 747 519 851 b 283 943 440 931 386 944 b 97 894 185 942 131 926 b 32 475 50 849 32 746 b 96 35 32 189 50 81 b 283 -14 126 1 183 -14 z m 285 139 b 233 153 261 139 243 144 b 208 472 213 174 208 242 b 235 776 208 686 214 756 b 285 792 246 786 263 792 b 333 776 307 792 324 786 b 363 472 354 756 363 685 b 338 154 363 243 358 175 b 285 139 328 144 310 139 z m 325 993 l 422 993 b 443 1013 436 993 443 999 l 443 1126 b 422 1146 443 1140 438 1146 l 325 1146 b 306 1126 311 1146 306 1140 l 306 1013 b 325 993 306 999 311 993 z m 153 993 l 247 993 b 268 1013 261 993 268 999 l 268 1126 b 247 1146 268 1140 263 1146 l 153 1146 b 132 1126 138 1146 132 1140 l 132 1013 b 153 993 132 999 138 993 z "},"ò":{"ha":571,"x_min":0,"x_max":0,"o":"m 283 -14 b 475 33 388 -14 442 0 b 539 475 519 81 539 190 b 475 896 539 747 519 851 b 283 943 440 931 386 944 b 97 894 185 942 131 926 b 32 475 50 849 32 746 b 96 35 32 189 50 81 b 283 -14 126 1 183 -14 z m 285 139 b 233 153 261 139 243 144 b 208 472 213 174 208 242 b 235 776 208 686 214 756 b 285 792 246 786 263 792 b 333 776 307 792 324 786 b 363 472 354 756 363 685 b 338 154 363 243 358 175 b 285 139 328 144 310 139 z m 365 999 l 299 1164 b 276 1179 294 1175 288 1179 l 169 1179 b 160 1163 156 1179 153 1175 l 243 996 b 268 982 249 988 256 982 l 353 982 b 365 999 367 982 369 988 z "},"ø":{"ha":571,"x_min":0,"x_max":0,"o":"m 283 -14 b 475 33 388 -14 442 0 b 539 475 519 81 539 190 b 475 896 539 747 519 851 b 419 929 461 910 443 921 l 446 1065 b 431 1082 449 1078 443 1082 l 376 1082 b 357 1067 365 1082 360 1078 l 333 942 l 283 943 b 97 894 185 942 131 926 b 32 475 50 849 32 746 b 96 35 32 189 50 81 b 151 1 108 21 126 10 l 122 -149 b 136 -168 119 -162 124 -168 l 192 -168 b 213 -151 204 -168 210 -162 l 239 -12 z m 285 139 l 268 140 l 361 619 l 363 472 b 338 154 363 243 358 175 b 285 139 328 144 310 139 z m 208 472 b 235 776 208 686 214 756 b 285 792 246 786 263 792 b 304 790 292 792 297 792 l 210 306 z "},"õ":{"ha":571,"x_min":0,"x_max":0,"o":"m 283 -14 b 475 33 388 -14 442 0 b 539 475 519 81 539 190 b 475 896 539 747 519 851 b 283 943 440 931 386 944 b 97 894 185 942 131 926 b 32 475 50 849 32 746 b 96 35 32 189 50 81 b 283 -14 126 1 183 -14 z m 285 139 b 233 153 261 139 243 144 b 208 472 213 174 208 242 b 235 776 208 686 214 756 b 285 792 246 786 263 792 b 333 776 307 792 324 786 b 363 472 354 756 363 685 b 338 154 363 243 358 175 b 285 139 328 144 310 139 z m 363 976 b 429 1001 390 976 413 986 b 440 1032 438 1011 440 1019 l 440 1110 b 428 1115 440 1121 436 1122 b 365 1089 404 1094 393 1089 b 304 1106 346 1089 326 1097 b 225 1124 282 1115 256 1124 b 156 1099 199 1124 174 1115 b 144 1068 147 1089 144 1081 l 144 990 b 158 985 144 978 149 975 b 221 1011 183 1007 197 1011 b 283 994 242 1011 261 1003 b 363 976 307 986 332 976 z "},"œ":{"ha":864,"x_min":0,"x_max":0,"o":"m 283 -14 b 443 11 360 -14 410 -7 b 599 -15 475 -7 525 -15 b 774 25 693 -15 746 -3 b 842 313 813 61 833 147 b 822 333 842 326 838 332 b 692 333 786 333 735 335 b 669 314 676 333 671 328 b 643 151 663 194 656 165 b 600 138 633 144 621 138 b 549 154 576 138 561 143 b 531 217 539 164 533 179 b 539 444 535 275 539 350 l 824 446 b 843 467 838 446 843 451 b 775 899 840 803 817 858 b 597 942 746 929 692 942 b 447 917 528 942 481 933 b 283 943 413 936 363 944 b 97 894 185 942 131 926 b 32 475 50 849 32 746 b 96 35 32 189 50 81 b 283 -14 126 1 183 -14 z m 285 139 b 233 153 261 139 243 144 b 208 472 213 174 208 242 b 235 776 208 686 214 756 b 285 792 246 786 263 792 b 333 776 307 792 324 786 b 356 697 343 767 351 743 b 347 457 350 636 347 558 b 356 211 347 351 350 272 b 338 154 351 179 346 163 b 285 139 328 144 310 139 z m 531 719 b 547 776 533 751 539 768 b 594 792 557 786 572 792 b 643 776 617 792 633 786 b 669 597 657 763 664 722 b 656 583 669 588 667 583 l 538 582 b 531 719 536 636 533 681 z "},"p":{"ha":575,"x_min":0,"x_max":0,"o":"m 67 -232 l 201 -232 b 221 -212 215 -232 221 -226 l 218 7 b 247 24 219 29 228 35 b 372 -14 293 -3 333 -14 b 483 21 425 -14 460 -3 b 542 447 521 58 542 101 b 478 908 542 821 521 864 b 371 943 456 932 419 943 b 239 889 329 943 294 928 b 207 903 219 876 210 881 l 207 907 b 185 926 206 921 199 926 l 68 926 b 47 907 53 926 47 921 l 46 461 b 46 -212 44 247 46 -28 b 67 -232 46 -226 51 -232 z m 306 150 b 247 174 282 150 263 158 b 217 454 221 203 217 214 b 250 754 217 711 226 729 b 307 782 265 771 285 782 b 344 767 325 782 335 778 b 367 456 363 750 367 701 b 346 164 367 225 363 181 b 306 150 336 154 321 150 z "},"þ":{"ha":578,"x_min":0,"x_max":0,"o":"m 69 -231 l 203 -231 b 224 -210 217 -231 224 -225 l 221 17 b 232 33 221 28 225 33 b 274 11 243 33 253 22 b 374 -12 303 -6 329 -12 b 493 22 435 -12 469 -1 b 542 442 531 61 542 103 b 489 896 542 807 532 851 b 374 929 468 918 436 929 b 269 899 318 929 292 917 b 229 865 249 882 240 865 b 219 876 222 865 219 868 l 221 1140 b 200 1161 221 1156 215 1161 l 71 1161 b 50 1140 56 1161 50 1156 l 47 454 l 49 -210 b 69 -231 49 -225 54 -231 z m 308 143 b 247 167 282 143 263 150 b 219 444 225 193 219 206 b 239 744 219 700 222 725 b 300 768 253 758 272 768 b 351 754 328 768 340 764 b 367 446 364 740 367 718 b 350 158 367 189 363 171 b 308 143 340 147 328 143 z "},"q":{"ha":575,"x_min":0,"x_max":0,"o":"m 374 -232 l 508 -232 b 529 -212 524 -232 529 -226 b 529 461 529 -28 531 247 l 528 907 b 507 926 528 921 522 926 l 390 926 b 368 907 376 926 369 921 l 368 903 b 336 889 365 881 356 876 b 204 943 281 928 246 943 b 97 908 156 943 119 932 b 33 447 54 864 33 821 b 92 21 33 101 54 58 b 203 -14 115 -3 150 -14 b 328 24 242 -14 282 -3 b 357 7 347 35 356 29 l 354 -212 b 374 -232 354 -226 360 -232 z m 269 150 b 229 164 254 150 239 154 b 208 456 213 181 208 225 b 231 767 208 701 213 750 b 268 782 240 778 250 782 b 325 754 290 782 310 771 b 358 454 349 729 358 711 b 328 174 358 214 354 203 b 269 150 313 158 293 150 z "},"r":{"ha":508,"x_min":0,"x_max":0,"o":"m 64 0 l 197 0 b 217 21 211 0 217 6 b 217 631 217 210 215 454 b 238 763 217 728 219 746 b 278 779 247 774 260 779 b 315 767 299 779 307 775 b 331 546 326 757 328 740 b 351 525 331 531 336 525 l 476 525 b 496 546 490 525 497 531 b 456 910 490 836 486 879 b 351 940 433 932 406 940 b 224 886 296 940 267 924 b 194 897 207 871 197 874 l 193 907 b 171 928 192 921 185 928 l 65 928 b 44 907 51 928 46 922 l 43 488 l 43 21 b 64 0 43 6 49 0 z "},"s":{"ha":519,"x_min":0,"x_max":0,"o":"m 263 -12 b 442 31 361 -12 414 1 b 500 267 479 69 500 146 b 439 492 500 390 482 449 b 303 563 418 513 379 532 b 215 610 256 582 231 593 b 196 697 201 624 196 649 b 214 781 196 736 201 768 b 258 793 222 789 235 793 b 303 779 278 793 292 790 b 329 668 317 765 322 736 b 351 646 331 653 336 647 b 481 646 393 643 439 643 b 500 668 496 647 501 653 b 442 899 493 797 475 865 b 260 943 417 924 374 943 b 79 896 153 943 104 922 b 25 696 46 860 25 783 b 81 482 25 582 39 524 b 210 410 101 461 136 442 b 303 360 263 388 290 374 b 329 247 319 343 329 317 b 311 153 329 192 324 164 b 263 138 303 143 286 138 b 218 153 242 138 228 143 b 193 304 203 165 199 200 b 171 325 192 318 186 324 l 42 324 b 21 303 26 324 21 318 b 79 33 28 136 46 72 b 263 -12 111 3 168 -12 z "},"t":{"ha":551,"x_min":0,"x_max":0,"o":"m 311 -15 b 479 25 408 -15 450 -3 b 528 368 514 61 521 90 b 508 389 529 382 524 388 b 399 389 472 390 435 390 b 378 368 385 389 378 383 b 358 144 371 168 369 156 b 315 133 350 136 339 133 b 274 169 282 133 274 143 b 278 756 274 315 275 618 b 293 771 278 765 283 771 l 506 769 b 525 790 519 769 525 775 l 525 907 b 506 928 526 921 519 928 l 294 928 b 279 942 283 928 279 932 l 279 1061 b 260 1082 279 1075 274 1082 l 147 1082 b 125 1061 132 1082 126 1076 l 115 942 b 99 928 114 932 110 928 l 35 928 b 14 907 19 928 14 922 l 14 790 b 35 769 14 775 19 769 b 97 771 54 771 79 771 b 113 756 108 771 113 767 b 103 146 108 585 103 264 b 311 -15 103 32 140 -15 z "},"u":{"ha":565,"x_min":0,"x_max":0,"o":"m 499 928 l 368 928 b 347 907 353 928 347 922 l 347 388 b 321 172 347 210 343 194 b 264 153 307 158 292 151 b 228 165 244 153 236 156 b 215 422 217 178 215 189 l 215 907 b 194 928 214 922 208 928 l 64 928 b 43 907 49 928 43 922 b 42 406 42 821 42 699 b 82 17 42 88 43 56 b 196 -15 101 -4 136 -15 b 328 42 251 -15 282 0 b 357 31 344 57 354 54 l 358 21 b 381 0 360 7 365 0 l 497 0 b 518 21 513 0 518 6 l 519 432 b 518 907 519 656 519 801 b 499 928 518 922 513 928 z "},"ú":{"ha":565,"x_min":0,"x_max":0,"o":"m 499 928 l 368 928 b 347 907 353 928 347 922 l 347 388 b 321 172 347 210 343 194 b 264 153 307 158 292 151 b 228 165 244 153 236 156 b 215 422 217 178 215 189 l 215 907 b 194 928 214 922 208 928 l 64 928 b 43 907 49 928 43 922 b 42 406 42 821 42 699 b 82 17 42 88 43 56 b 196 -15 101 -4 136 -15 b 328 42 251 -15 282 0 b 357 31 344 57 354 54 l 358 21 b 381 0 360 7 365 0 l 497 0 b 518 21 513 0 518 6 l 519 432 b 518 907 519 656 519 801 b 499 928 518 922 513 928 z m 206 971 l 289 971 b 314 983 300 971 307 975 l 404 1150 b 394 1167 411 1163 408 1167 l 289 1167 b 267 1151 279 1167 272 1163 l 194 986 b 206 971 189 975 193 971 z "},"û":{"ha":565,"x_min":0,"x_max":0,"o":"m 499 928 l 368 928 b 347 907 353 928 347 922 l 347 388 b 321 172 347 210 343 194 b 264 153 307 158 292 151 b 228 165 244 153 236 156 b 215 422 217 178 215 189 l 215 907 b 194 928 214 922 208 928 l 64 928 b 43 907 49 928 43 922 b 42 406 42 821 42 699 b 82 17 42 88 43 56 b 196 -15 101 -4 136 -15 b 328 42 251 -15 282 0 b 357 31 344 57 354 54 l 358 21 b 381 0 360 7 365 0 l 497 0 b 518 21 513 0 518 6 l 519 432 b 518 907 519 656 519 801 b 499 928 518 922 513 928 z m 201 1151 l 117 983 b 126 969 110 974 113 969 l 217 969 b 240 983 228 969 235 974 l 276 1056 l 313 983 b 338 969 318 974 325 969 l 426 969 b 436 985 439 969 443 974 l 353 1151 b 328 1167 347 1163 340 1167 l 226 1167 b 201 1151 214 1167 207 1163 z "},"ü":{"ha":565,"x_min":0,"x_max":0,"o":"m 499 928 l 368 928 b 347 907 353 928 347 922 l 347 388 b 321 172 347 210 343 194 b 264 153 307 158 292 151 b 228 165 244 153 236 156 b 215 422 217 178 215 189 l 215 907 b 194 928 214 922 208 928 l 64 928 b 43 907 49 928 43 922 b 42 406 42 821 42 699 b 82 17 42 88 43 56 b 196 -15 101 -4 136 -15 b 328 42 251 -15 282 0 b 357 31 344 57 354 54 l 358 21 b 381 0 360 7 365 0 l 497 0 b 518 21 513 0 518 6 l 519 432 b 518 907 519 656 519 801 b 499 928 518 922 513 928 z m 317 981 l 414 981 b 435 1000 428 981 435 986 l 435 1114 b 414 1133 435 1128 429 1133 l 317 1133 b 297 1114 303 1133 297 1128 l 297 1000 b 317 981 297 986 303 981 z m 144 981 l 239 981 b 260 1000 253 981 260 986 l 260 1114 b 239 1133 260 1128 254 1133 l 144 1133 b 124 1114 129 1133 124 1128 l 124 1000 b 144 981 124 986 129 981 z "},"ù":{"ha":565,"x_min":0,"x_max":0,"o":"m 499 928 l 368 928 b 347 907 353 928 347 922 l 347 388 b 321 172 347 210 343 194 b 264 153 307 158 292 151 b 228 165 244 153 236 156 b 215 422 217 178 215 189 l 215 907 b 194 928 214 922 208 928 l 64 928 b 43 907 49 928 43 922 b 42 406 42 821 42 699 b 82 17 42 88 43 56 b 196 -15 101 -4 136 -15 b 328 42 251 -15 282 0 b 357 31 344 57 354 54 l 358 21 b 381 0 360 7 365 0 l 497 0 b 518 21 513 0 518 6 l 519 432 b 518 907 519 656 519 801 b 499 928 518 922 513 928 z m 357 986 l 290 1151 b 268 1167 286 1163 279 1167 l 161 1167 b 151 1150 147 1167 144 1163 l 235 983 b 260 969 240 975 247 969 l 344 969 b 357 986 358 969 361 975 z "},"v":{"ha":515,"x_min":0,"x_max":0,"o":"m 179 -1 b 356 0 233 -3 301 -3 b 375 17 367 0 372 6 b 501 908 429 311 479 696 b 485 928 503 922 497 928 b 361 928 444 929 401 929 b 342 910 349 928 343 922 b 282 294 326 731 306 488 b 261 286 282 279 267 278 b 190 910 233 481 208 731 b 172 928 190 922 185 928 b 32 928 126 929 76 929 b 15 908 18 928 14 922 b 158 17 44 671 100 290 b 179 -1 161 4 167 0 z "},"w":{"ha":778,"x_min":0,"x_max":0,"o":"m 125 -1 b 276 -1 169 -3 231 -3 b 296 17 289 0 294 6 b 372 613 319 174 346 404 b 390 619 371 626 385 629 b 465 17 413 410 440 174 b 485 -1 467 6 472 0 b 642 -1 531 -3 593 -3 b 663 17 654 0 660 6 b 769 908 704 258 753 636 b 751 928 769 922 765 928 b 624 928 713 929 661 929 b 606 910 611 928 606 922 b 561 317 596 774 581 540 b 544 310 561 303 550 300 b 479 910 519 515 497 721 b 461 928 478 922 474 928 b 335 928 425 929 372 929 b 317 910 324 928 318 922 b 250 321 304 775 279 544 b 232 314 250 306 238 304 b 190 910 214 546 200 774 b 171 928 189 922 183 928 b 26 928 126 929 74 929 b 10 908 14 928 8 922 b 106 17 26 665 74 279 b 125 -1 107 6 113 0 z "},"ẃ":{"ha":778,"x_min":0,"x_max":0,"o":"m 125 -1 b 276 -1 169 -3 231 -3 b 296 17 289 0 294 6 b 372 613 319 174 346 404 b 390 619 371 626 385 629 b 465 17 413 410 440 174 b 485 -1 467 6 472 0 b 642 -1 531 -3 593 -3 b 663 17 654 0 660 6 b 769 908 704 258 753 636 b 751 928 769 922 765 928 b 624 928 713 929 661 929 b 606 910 611 928 606 922 b 561 317 596 774 581 540 b 544 310 561 303 550 300 b 479 910 519 515 497 721 b 461 928 478 922 474 928 b 335 928 425 929 372 929 b 317 910 324 928 318 922 b 250 321 304 775 279 544 b 232 314 250 306 238 304 b 190 910 214 546 200 774 b 171 928 189 922 183 928 b 26 928 126 929 74 929 b 10 908 14 928 8 922 b 106 17 26 665 74 279 b 125 -1 107 6 113 0 z m 307 983 l 390 983 b 415 996 401 983 408 988 l 506 1163 b 496 1179 513 1175 510 1179 l 390 1179 b 368 1164 381 1179 374 1175 l 296 999 b 307 983 290 988 294 983 z "},"ŵ":{"ha":778,"x_min":0,"x_max":0,"o":"m 125 -1 b 276 -1 169 -3 231 -3 b 296 17 289 0 294 6 b 372 613 319 174 346 404 b 390 619 371 626 385 629 b 465 17 413 410 440 174 b 485 -1 467 6 472 0 b 642 -1 531 -3 593 -3 b 663 17 654 0 660 6 b 769 908 704 258 753 636 b 751 928 769 922 765 928 b 624 928 713 929 661 929 b 606 910 611 928 606 922 b 561 317 596 774 581 540 b 544 310 561 303 550 300 b 479 910 519 515 497 721 b 461 928 478 922 474 928 b 335 928 425 929 372 929 b 317 910 324 928 318 922 b 250 321 304 775 279 544 b 232 314 250 306 238 304 b 190 910 214 546 200 774 b 171 928 189 922 183 928 b 26 928 126 929 74 929 b 10 908 14 928 8 922 b 106 17 26 665 74 279 b 125 -1 107 6 113 0 z m 303 1164 l 218 996 b 228 982 211 986 214 982 l 318 982 b 342 996 329 982 336 986 l 378 1068 l 414 996 b 439 982 419 986 426 982 l 528 982 b 538 997 540 982 544 986 l 454 1164 b 429 1179 449 1175 442 1179 l 328 1179 b 303 1164 315 1179 308 1175 z "},"ẅ":{"ha":778,"x_min":0,"x_max":0,"o":"m 125 -1 b 276 -1 169 -3 231 -3 b 296 17 289 0 294 6 b 372 613 319 174 346 404 b 390 619 371 626 385 629 b 465 17 413 410 440 174 b 485 -1 467 6 472 0 b 642 -1 531 -3 593 -3 b 663 17 654 0 660 6 b 769 908 704 258 753 636 b 751 928 769 922 765 928 b 624 928 713 929 661 929 b 606 910 611 928 606 922 b 561 317 596 774 581 540 b 544 310 561 303 550 300 b 479 910 519 515 497 721 b 461 928 478 922 474 928 b 335 928 425 929 372 929 b 317 910 324 928 318 922 b 250 321 304 775 279 544 b 232 314 250 306 238 304 b 190 910 214 546 200 774 b 171 928 189 922 183 928 b 26 928 126 929 74 929 b 10 908 14 928 8 922 b 106 17 26 665 74 279 b 125 -1 107 6 113 0 z m 418 993 l 515 993 b 536 1013 529 993 536 999 l 536 1126 b 515 1146 536 1140 531 1146 l 418 1146 b 399 1126 404 1146 399 1140 l 399 1013 b 418 993 399 999 404 993 z m 246 993 l 340 993 b 361 1013 354 993 361 999 l 361 1126 b 340 1146 361 1140 356 1146 l 246 1146 b 225 1126 231 1146 225 1140 l 225 1013 b 246 993 225 999 231 993 z "},"ẁ":{"ha":778,"x_min":0,"x_max":0,"o":"m 125 -1 b 276 -1 169 -3 231 -3 b 296 17 289 0 294 6 b 372 613 319 174 346 404 b 390 619 371 626 385 629 b 465 17 413 410 440 174 b 485 -1 467 6 472 0 b 642 -1 531 -3 593 -3 b 663 17 654 0 660 6 b 769 908 704 258 753 636 b 751 928 769 922 765 928 b 624 928 713 929 661 929 b 606 910 611 928 606 922 b 561 317 596 774 581 540 b 544 310 561 303 550 300 b 479 910 519 515 497 721 b 461 928 478 922 474 928 b 335 928 425 929 372 929 b 317 910 324 928 318 922 b 250 321 304 775 279 544 b 232 314 250 306 238 304 b 190 910 214 546 200 774 b 171 928 189 922 183 928 b 26 928 126 929 74 929 b 10 908 14 928 8 922 b 106 17 26 665 74 279 b 125 -1 107 6 113 0 z m 458 999 l 392 1164 b 369 1179 388 1175 381 1179 l 263 1179 b 253 1163 249 1179 246 1175 l 336 996 b 361 982 342 988 349 982 l 446 982 b 458 999 460 982 463 988 z "},"x":{"ha":531,"x_min":0,"x_max":0,"o":"m 21 0 l 156 0 b 176 17 168 0 174 4 b 240 339 193 113 218 239 b 265 344 240 350 260 351 b 333 17 288 249 314 125 b 353 0 335 6 340 0 b 506 0 401 -1 457 -1 b 519 18 518 0 522 6 b 401 501 485 186 432 385 b 403 529 399 511 399 519 b 518 910 439 628 485 792 b 506 928 522 922 518 928 l 369 928 b 350 911 358 928 351 922 b 290 631 333 828 311 719 b 264 625 290 619 269 618 b 204 911 244 714 225 818 b 183 928 201 922 196 928 b 28 928 133 929 78 929 b 13 910 14 928 10 922 b 126 501 49 758 99 596 b 126 472 129 492 129 483 b 7 18 92 354 32 138 b 21 0 4 6 8 0 z "},"y":{"ha":514,"x_min":0,"x_max":0,"o":"m 176 -256 b 356 -101 304 -256 333 -217 l 388 69 l 383 69 b 501 908 435 354 481 708 b 485 928 503 922 497 928 b 361 928 444 929 401 929 b 342 910 349 928 343 922 b 282 297 326 732 306 490 b 261 290 282 283 267 282 b 190 910 233 483 208 732 b 172 928 190 922 185 928 b 32 928 126 929 76 929 b 15 908 18 928 14 922 b 158 22 44 672 100 293 b 179 4 161 10 167 6 l 214 4 l 203 -68 b 160 -100 197 -92 189 -100 l 58 -99 b 38 -117 44 -97 38 -103 l 38 -226 b 58 -249 38 -240 43 -247 b 176 -256 88 -253 133 -256 z "},"ý":{"ha":514,"x_min":0,"x_max":0,"o":"m 176 -256 b 356 -101 304 -256 333 -217 l 388 69 l 383 69 b 501 908 435 354 481 708 b 485 928 503 922 497 928 b 361 928 444 929 401 929 b 342 910 349 928 343 922 b 282 297 326 732 306 490 b 261 290 282 283 267 282 b 190 910 233 483 208 732 b 172 928 190 922 185 928 b 32 928 126 929 76 929 b 15 908 18 928 14 922 b 158 22 44 672 100 293 b 179 4 161 10 167 6 l 214 4 l 203 -68 b 160 -100 197 -92 189 -100 l 58 -99 b 38 -117 44 -97 38 -103 l 38 -226 b 58 -249 38 -240 43 -247 b 176 -256 88 -253 133 -256 z m 188 983 l 271 983 b 296 996 282 983 289 988 l 386 1163 b 376 1179 393 1175 390 1179 l 271 1179 b 249 1164 261 1179 254 1175 l 176 999 b 188 983 171 988 175 983 z "},"ŷ":{"ha":514,"x_min":0,"x_max":0,"o":"m 176 -256 b 356 -101 304 -256 333 -217 l 388 69 l 383 69 b 501 908 435 354 481 708 b 485 928 503 922 497 928 b 361 928 444 929 401 929 b 342 910 349 928 343 922 b 282 297 326 732 306 490 b 261 290 282 283 267 282 b 190 910 233 483 208 732 b 172 928 190 922 185 928 b 32 928 126 929 76 929 b 15 908 18 928 14 922 b 158 22 44 672 100 293 b 179 4 161 10 167 6 l 214 4 l 203 -68 b 160 -100 197 -92 189 -100 l 58 -99 b 38 -117 44 -97 38 -103 l 38 -226 b 58 -249 38 -240 43 -247 b 176 -256 88 -253 133 -256 z m 183 1164 l 99 996 b 108 982 92 986 94 982 l 199 982 b 222 996 210 982 217 986 l 258 1068 l 294 996 b 319 982 300 986 307 982 l 408 982 b 418 997 421 982 425 986 l 335 1164 b 310 1179 329 1175 322 1179 l 208 1179 b 183 1164 196 1179 189 1175 z "},"ÿ":{"ha":514,"x_min":0,"x_max":0,"o":"m 176 -256 b 356 -101 304 -256 333 -217 l 388 69 l 383 69 b 501 908 435 354 481 708 b 485 928 503 922 497 928 b 361 928 444 929 401 929 b 342 910 349 928 343 922 b 282 297 326 732 306 490 b 261 290 282 283 267 282 b 190 910 233 483 208 732 b 172 928 190 922 185 928 b 32 928 126 929 76 929 b 15 908 18 928 14 922 b 158 22 44 672 100 293 b 179 4 161 10 167 6 l 214 4 l 203 -68 b 160 -100 197 -92 189 -100 l 58 -99 b 38 -117 44 -97 38 -103 l 38 -226 b 58 -249 38 -240 43 -247 b 176 -256 88 -253 133 -256 z m 299 993 l 396 993 b 417 1013 410 993 417 999 l 417 1126 b 396 1146 417 1140 411 1146 l 299 1146 b 279 1126 285 1146 279 1140 l 279 1013 b 299 993 279 999 285 993 z m 126 993 l 221 993 b 242 1013 235 993 242 999 l 242 1126 b 221 1146 242 1140 236 1146 l 126 1146 b 106 1126 111 1146 106 1140 l 106 1013 b 126 993 106 999 111 993 z "},"ỳ":{"ha":514,"x_min":0,"x_max":0,"o":"m 176 -256 b 356 -101 304 -256 333 -217 l 388 69 l 383 69 b 501 908 435 354 481 708 b 485 928 503 922 497 928 b 361 928 444 929 401 929 b 342 910 349 928 343 922 b 282 297 326 732 306 490 b 261 290 282 283 267 282 b 190 910 233 483 208 732 b 172 928 190 922 185 928 b 32 928 126 929 76 929 b 15 908 18 928 14 922 b 158 22 44 672 100 293 b 179 4 161 10 167 6 l 214 4 l 203 -68 b 160 -100 197 -92 189 -100 l 58 -99 b 38 -117 44 -97 38 -103 l 38 -226 b 58 -249 38 -240 43 -247 b 176 -256 88 -253 133 -256 z m 339 999 l 272 1164 b 250 1179 268 1175 261 1179 l 143 1179 b 133 1163 129 1179 126 1175 l 217 996 b 242 982 222 988 229 982 l 326 982 b 339 999 340 982 343 988 z "},"z":{"ha":463,"x_min":0,"x_max":0,"o":"m 46 0 b 418 0 122 -1 257 0 b 439 21 432 0 439 6 l 439 136 b 418 157 439 151 433 157 l 249 156 b 236 172 236 156 232 160 b 425 757 278 308 371 596 b 432 797 431 771 432 782 l 432 907 b 411 928 432 921 426 928 l 47 928 b 28 907 33 928 28 922 l 28 790 b 47 769 28 775 33 769 l 214 771 b 226 754 226 771 229 767 b 31 163 175 600 81 321 b 25 122 26 149 25 136 l 25 21 b 46 0 25 6 31 0 z "}," ":{"ha":111,"x_min":0,"x_max":0,"o":""},".":{"ha":214,"x_min":0,"x_max":0,"o":"m 18 218 l 18 21 b 39 0 18 6 25 0 l 175 0 b 196 21 190 0 196 6 b 196 218 197 79 197 163 b 175 239 196 233 190 239 l 39 239 b 18 218 25 239 18 233 z "},",":{"ha":224,"x_min":0,"x_max":0,"o":"m 29 -217 l 103 -217 b 126 -200 115 -217 122 -211 l 199 -6 b 206 33 203 7 206 18 l 206 219 b 185 240 206 233 200 240 l 40 240 b 19 219 26 240 19 235 l 19 21 b 40 0 19 6 25 0 l 79 0 b 89 -14 90 0 93 -4 l 17 -199 b 29 -217 13 -211 15 -217 z "},":":{"ha":224,"x_min":0,"x_max":0,"o":"m 22 217 l 22 21 b 43 0 22 6 29 0 l 179 0 b 200 21 194 0 200 6 b 200 217 201 79 201 163 b 179 238 200 232 194 238 l 43 238 b 22 217 29 238 22 232 z m 22 797 l 22 601 b 43 581 22 586 29 581 l 179 581 b 200 601 194 581 200 586 b 200 797 201 660 201 743 b 179 818 200 813 194 818 l 43 818 b 22 797 29 818 22 813 z "},";":{"ha":233,"x_min":0,"x_max":0,"o":"m 32 -215 l 106 -215 b 129 -199 118 -215 125 -210 l 201 -6 b 208 33 206 7 208 18 l 208 218 b 188 239 208 232 203 239 l 43 239 b 22 218 29 239 22 233 l 22 21 b 43 0 22 6 28 0 l 82 0 b 92 -14 93 0 96 -4 l 19 -197 b 32 -215 15 -210 18 -215 z m 25 797 l 25 601 b 46 581 25 586 32 581 l 182 581 b 203 601 197 581 203 586 b 203 797 204 660 204 742 b 182 818 203 813 197 818 l 46 818 b 25 797 32 818 25 813 z "},"!":{"ha":294,"x_min":0,"x_max":0,"o":"m 221 319 l 239 742 l 239 782 l 242 1071 b 222 1090 242 1085 238 1090 l 72 1090 b 51 1071 57 1090 51 1085 l 54 782 b 56 742 54 768 54 756 l 71 319 b 93 300 72 306 78 300 l 200 300 b 221 319 214 300 221 306 z m 240 21 l 240 217 b 221 238 240 231 235 238 l 74 238 b 53 217 58 238 53 232 l 53 21 b 74 0 53 6 58 0 l 221 0 b 240 21 235 0 240 6 z "},"¡":{"ha":290,"x_min":0,"x_max":0,"o":"m 240 201 l 222 624 b 201 643 222 638 215 643 l 94 643 b 72 624 79 643 74 638 l 57 201 b 56 161 56 188 56 175 l 53 -128 b 74 -147 53 -142 58 -147 l 224 -147 b 243 -128 239 -147 243 -142 l 240 161 z m 242 726 l 242 922 b 222 943 242 938 236 943 l 75 943 b 54 922 60 943 54 938 l 54 726 b 75 706 54 711 60 706 l 222 706 b 242 726 236 706 242 713 z "},"?":{"ha":564,"x_min":0,"x_max":0,"o":"m 192 297 l 324 297 b 344 317 338 297 344 303 l 346 375 b 372 468 347 424 356 450 b 422 515 383 482 399 496 b 501 590 450 538 483 565 b 551 821 535 635 551 710 b 485 1056 551 935 528 1013 b 286 1101 451 1086 392 1101 b 85 1053 183 1103 122 1088 b 8 756 44 1013 21 954 b 28 735 8 740 13 735 l 175 738 b 197 758 190 738 196 743 b 228 924 204 878 213 910 b 283 942 239 936 256 942 b 342 925 310 942 328 936 b 364 813 358 911 364 875 b 342 700 364 746 357 721 b 283 640 328 682 303 658 b 210 568 258 619 228 590 b 167 408 179 531 164 482 l 169 317 b 192 297 171 303 178 297 z m 182 0 l 331 0 b 350 21 344 0 350 6 l 350 215 b 331 235 350 229 344 235 l 182 235 b 161 215 168 235 161 229 l 161 21 b 182 0 161 6 167 0 z "},"¿":{"ha":538,"x_min":0,"x_max":0,"o":"m 346 649 l 214 649 b 193 629 200 649 193 643 l 192 571 b 165 478 190 522 182 496 b 115 431 154 464 139 450 b 36 356 88 408 54 381 b -14 125 3 311 -14 236 b 53 -110 -14 11 10 -67 b 251 -156 86 -140 146 -156 b 453 -107 354 -157 415 -142 b 529 190 493 -67 517 -8 b 510 211 529 206 525 211 l 363 208 b 340 188 347 208 342 203 b 310 22 333 68 325 36 b 254 4 299 10 282 4 b 196 21 228 4 210 10 b 174 133 179 35 174 71 b 196 246 174 200 181 225 b 254 306 210 264 235 288 b 328 378 279 326 310 356 b 371 538 358 415 374 464 l 368 629 b 346 649 367 643 360 649 z m 356 946 l 207 946 b 188 925 193 946 188 940 l 188 731 b 207 711 188 717 193 711 l 356 711 b 376 731 369 711 376 717 l 376 925 b 356 946 376 940 371 946 z "},"•":{"ha":281,"x_min":0,"x_max":0,"o":"m 142 378 b 264 501 210 378 264 433 b 142 624 264 569 210 624 b 18 501 74 624 18 569 b 142 378 18 433 74 378 z "},"*":{"ha":499,"x_min":0,"x_max":0,"o":"m 171 608 l 240 728 b 260 728 247 739 253 739 l 329 608 b 356 604 336 596 343 594 l 447 674 b 450 701 458 682 460 690 l 356 803 b 361 821 347 813 349 818 l 488 857 b 500 881 501 861 506 867 l 457 986 b 432 994 451 999 444 1001 l 326 939 b 311 949 315 933 310 936 l 326 1075 b 308 1096 328 1089 324 1096 l 189 1096 b 171 1075 175 1096 169 1090 l 188 931 l 68 994 b 42 985 56 1001 47 999 l -1 882 b 10 857 -7 868 -4 861 l 154 815 l 49 701 b 51 674 39 690 39 683 l 144 603 b 171 608 156 594 163 596 z "},"/":{"ha":296,"x_min":0,"x_max":0,"o":"m 303 1143 l 199 1143 b 179 1126 188 1143 182 1139 l -37 -232 b -22 -251 -40 -246 -35 -251 l 82 -251 b 101 -233 94 -251 100 -246 l 318 1125 b 303 1143 321 1138 315 1143 z "},"\\":{"ha":296,"x_min":0,"x_max":0,"o":"m 97 1143 l -7 1143 b -22 1125 -19 1143 -25 1138 l 194 -233 b 214 -251 196 -246 201 -251 l 318 -251 b 333 -232 331 -251 336 -246 l 117 1126 b 97 1143 114 1139 108 1143 z "},"-":{"ha":372,"x_min":0,"x_max":0,"o":"m 19 569 b 19 451 18 535 18 488 b 40 431 19 438 25 431 l 333 431 b 354 451 347 431 353 436 b 353 569 356 488 356 535 b 332 590 353 585 347 590 l 40 590 b 19 569 25 590 19 585 z "},"–":{"ha":428,"x_min":0,"x_max":0,"o":"m 18 631 l 18 513 b 40 492 19 497 25 492 l 388 492 b 408 513 403 492 408 497 b 408 631 410 550 410 593 b 388 650 408 644 403 650 l 40 650 b 18 631 25 650 19 644 z "},"—":{"ha":831,"x_min":0,"x_max":0,"o":"m 19 572 l 19 453 b 40 432 19 438 25 432 l 792 432 b 813 453 807 432 813 438 l 813 572 b 792 593 813 588 807 593 l 40 593 b 19 572 25 593 19 588 z "},"(":{"ha":279,"x_min":0,"x_max":0,"o":"m 140 -243 l 232 -243 b 249 -224 247 -243 251 -237 b 197 426 218 -71 197 163 b 249 1071 197 657 217 917 b 232 1090 251 1085 247 1090 l 140 1090 b 118 1075 128 1090 122 1086 b 33 426 63 890 33 674 b 118 -228 33 174 63 -44 b 140 -243 122 -239 128 -243 z "},")":{"ha":279,"x_min":0,"x_max":0,"o":"m 139 1090 l 47 1090 b 31 1071 32 1090 28 1085 b 82 421 61 918 82 685 b 31 -224 82 190 63 -69 b 47 -243 28 -237 32 -243 l 139 -243 b 161 -228 151 -243 157 -239 b 246 421 217 -43 246 174 b 161 1075 246 674 217 892 b 139 1090 157 1086 151 1090 z "},"{":{"ha":333,"x_min":0,"x_max":0,"o":"m 263 -235 l 297 -235 b 318 -215 313 -235 318 -229 l 318 -118 b 297 -97 318 -104 313 -97 l 300 -97 b 243 -12 257 -97 242 -71 l 261 240 b 203 433 265 335 247 385 b 201 483 186 449 186 465 b 261 672 249 535 265 583 l 243 860 b 300 956 240 918 254 956 l 297 956 b 318 976 313 956 318 961 l 318 1071 b 297 1092 318 1086 313 1092 l 264 1092 b 68 888 113 1092 61 1018 l 88 654 b 36 526 92 583 75 551 b 19 496 24 519 19 510 l 19 419 b 36 389 19 406 24 397 b 88 257 75 364 90 331 l 68 -43 b 263 -235 64 -176 119 -235 z "},"}":{"ha":333,"x_min":0,"x_max":0,"o":"m 36 -235 l 71 -235 b 265 -43 214 -235 269 -176 l 246 257 b 297 389 243 331 258 364 b 314 419 310 397 314 406 l 314 496 b 297 526 314 510 310 519 b 246 654 258 551 242 583 l 265 888 b 69 1092 272 1018 221 1092 l 36 1092 b 15 1071 21 1092 15 1086 l 15 976 b 36 956 15 961 21 956 l 33 956 b 90 860 79 956 93 918 l 72 672 b 132 483 68 583 85 535 b 131 433 147 465 147 449 b 72 240 86 385 68 335 l 90 -12 b 33 -97 92 -71 76 -97 l 36 -97 b 15 -118 21 -97 15 -104 l 15 -215 b 36 -235 15 -229 21 -235 z "},"[":{"ha":293,"x_min":0,"x_max":0,"o":"m 268 -204 l 268 -114 b 247 -93 268 -99 263 -93 l 207 -93 b 193 -79 197 -93 193 -89 l 193 942 b 207 957 193 953 197 957 l 247 957 b 268 978 261 957 268 963 l 268 1071 b 247 1090 268 1085 263 1090 l 71 1090 b 51 1071 57 1090 51 1085 l 51 -204 b 71 -225 51 -218 57 -225 l 247 -225 b 268 -204 261 -225 268 -219 z "},"]":{"ha":292,"x_min":0,"x_max":0,"o":"m 24 -114 l 24 -204 b 44 -225 24 -219 31 -225 l 221 -225 b 240 -204 235 -225 240 -218 l 240 1071 b 221 1090 240 1085 235 1090 l 44 1090 b 24 1071 29 1090 24 1085 l 24 978 b 44 957 24 963 31 957 l 85 957 b 99 942 94 957 99 953 l 99 -79 b 85 -93 99 -89 94 -93 l 44 -93 b 24 -114 29 -93 24 -99 z "},"“":{"ha":439,"x_min":0,"x_max":0,"o":"m 188 1090 l 114 1090 b 90 1074 101 1090 94 1085 l 18 879 b 11 840 14 867 11 856 l 11 654 b 32 633 11 640 17 633 l 176 633 b 197 654 190 633 197 639 l 197 853 b 176 874 197 868 192 874 l 138 874 b 128 888 126 874 124 878 l 200 1072 b 188 1090 204 1085 201 1090 z m 410 1090 l 336 1090 b 313 1074 324 1090 317 1085 l 240 879 b 233 840 236 867 233 856 l 233 654 b 254 633 233 640 239 633 l 399 633 b 419 654 413 633 419 639 l 419 853 b 399 874 419 868 414 874 l 360 874 b 350 888 349 874 346 878 l 422 1072 b 410 1090 426 1085 424 1090 z "},"”":{"ha":442,"x_min":0,"x_max":0,"o":"m 254 635 l 328 635 b 351 651 340 635 347 640 l 424 846 b 431 885 428 858 431 869 l 431 1071 b 410 1092 431 1085 425 1092 l 265 1092 b 244 1071 251 1092 244 1086 l 244 872 b 265 851 244 857 250 851 l 304 851 b 314 838 315 851 318 847 l 242 653 b 254 635 238 640 240 635 z m 32 635 l 106 635 b 129 651 118 635 125 640 l 201 846 b 208 885 206 858 208 869 l 208 1071 b 188 1092 208 1085 203 1092 l 43 1092 b 22 1071 29 1092 22 1086 l 22 872 b 43 851 22 857 28 851 l 82 851 b 92 838 93 851 96 847 l 19 653 b 32 635 15 640 18 635 z "},"‘":{"ha":217,"x_min":0,"x_max":0,"o":"m 188 1090 l 114 1090 b 90 1074 101 1090 94 1085 l 18 879 b 11 840 14 867 11 856 l 11 654 b 32 633 11 640 17 633 l 176 633 b 197 654 190 633 197 639 l 197 853 b 176 874 197 868 192 874 l 138 874 b 128 888 126 874 124 878 l 200 1072 b 188 1090 204 1085 201 1090 z "},"’":{"ha":217,"x_min":0,"x_max":0,"o":"m 29 633 l 103 633 b 126 650 115 633 122 639 l 199 844 b 206 883 203 857 206 868 l 206 1069 b 185 1090 206 1083 200 1090 l 40 1090 b 19 1069 26 1090 19 1085 l 19 871 b 40 850 19 856 25 850 l 79 850 b 89 836 90 850 93 846 l 17 651 b 29 633 13 639 15 633 z "},"\"":{"ha":329,"x_min":0,"x_max":0,"o":"m 131 1090 l 43 1090 b 24 1071 31 1090 24 1085 l 24 939 b 25 897 24 924 24 913 l 32 700 b 51 681 32 686 38 681 l 121 681 b 142 700 135 681 142 686 l 149 897 b 150 939 150 913 150 924 l 150 1071 b 131 1090 150 1085 146 1090 z m 290 1089 l 203 1089 b 183 1069 189 1089 183 1083 l 183 938 b 185 896 183 922 183 911 l 190 699 b 211 679 190 685 197 679 l 281 679 b 301 699 294 679 301 685 l 308 896 b 310 938 310 911 310 922 l 310 1069 b 290 1089 310 1083 304 1089 z "},"'":{"ha":174,"x_min":0,"x_max":0,"o":"m 135 1090 l 44 1090 b 24 1071 31 1090 24 1085 l 24 939 b 25 897 24 924 24 913 l 32 700 b 53 681 32 686 39 681 l 125 681 b 146 700 139 681 146 686 l 154 897 b 156 939 156 913 156 924 l 156 1071 b 135 1090 156 1085 150 1090 z "},"@":{"ha":813,"x_min":0,"x_max":0,"o":"m 407 -157 b 639 -135 501 -157 571 -150 b 647 -124 644 -133 647 -129 l 647 -90 b 635 -81 647 -82 642 -78 b 407 -106 572 -97 507 -106 b 153 -44 258 -106 193 -86 b 92 483 113 -6 92 56 b 156 1000 92 896 115 960 b 413 1058 196 1042 263 1058 b 664 1000 557 1058 624 1042 b 722 485 704 960 722 896 b 663 60 722 88 703 60 b 631 104 642 60 631 71 l 632 518 b 629 922 632 690 631 826 b 610 943 629 936 624 943 l 500 943 b 478 922 485 943 479 938 l 476 903 b 450 894 474 879 467 878 b 329 957 413 936 381 957 b 217 921 278 957 240 944 b 164 469 176 878 164 831 b 215 26 164 108 176 67 b 326 -8 236 4 269 -8 b 436 28 365 -8 399 0 b 475 56 456 42 465 56 b 496 38 483 56 488 49 b 611 -14 517 7 542 -14 b 776 485 739 -14 776 17 b 701 1038 776 904 751 988 b 410 1108 654 1086 572 1108 b 117 1038 246 1108 164 1086 b 38 483 67 986 38 906 b 113 -86 38 47 64 -33 b 407 -157 160 -133 243 -157 z m 388 151 b 349 165 369 151 358 156 b 333 474 338 178 333 200 b 350 782 333 743 336 767 b 392 794 360 792 371 794 b 442 769 411 794 429 785 b 467 472 461 747 467 725 b 440 178 467 217 463 204 b 388 151 424 163 408 151 z "},"&":{"ha":650,"x_min":0,"x_max":0,"o":"m 240 -12 b 411 47 311 -12 350 3 b 432 42 421 54 426 53 l 444 15 b 469 0 450 4 457 0 l 619 -1 b 632 17 632 -1 636 4 l 568 201 l 628 672 b 611 690 629 685 625 690 l 474 690 b 454 674 461 690 456 685 l 431 474 l 308 744 b 269 878 283 801 269 833 b 285 928 269 899 275 918 b 339 944 294 939 310 944 b 389 928 365 944 379 939 b 417 842 401 917 408 896 b 440 821 419 826 426 821 l 582 822 b 600 843 596 822 601 828 b 532 1051 589 968 564 1018 b 336 1103 499 1085 432 1101 b 142 1054 242 1104 175 1088 b 85 879 106 1018 85 957 b 139 650 85 786 100 742 b 133 621 143 639 142 631 b 33 325 57 535 33 461 b 86 31 33 139 49 71 b 240 -12 117 0 167 -12 z m 282 144 b 242 157 261 144 251 147 b 217 333 224 174 217 218 b 236 460 217 433 228 450 b 256 450 243 468 251 463 l 360 213 b 354 183 364 201 363 193 b 282 144 322 154 304 144 z "},"©":{"ha":746,"x_min":0,"x_max":0,"o":"m 374 -29 b 629 39 511 -29 583 -8 b 708 544 679 89 708 181 b 629 1043 708 900 679 992 b 374 1110 583 1089 510 1110 b 118 1042 238 1110 164 1089 b 38 544 68 990 38 900 b 118 39 38 181 68 90 b 374 -29 164 -8 239 -29 z m 374 14 b 151 72 254 14 190 33 b 83 544 110 113 83 190 b 151 1010 83 892 110 969 b 374 1067 192 1049 254 1067 b 597 1010 493 1067 557 1049 b 663 544 638 969 663 893 b 597 72 663 190 638 111 b 374 14 558 33 494 14 z m 378 86 b 547 133 475 86 521 106 b 603 439 581 168 594 200 b 585 458 603 453 599 458 l 464 460 b 446 440 451 460 446 454 b 422 247 440 296 435 260 b 378 232 413 236 397 232 b 333 247 360 232 343 236 b 311 547 318 263 311 311 b 335 833 311 767 319 815 b 378 850 344 844 360 850 b 421 833 399 850 411 844 b 447 663 433 821 439 788 b 467 643 449 649 453 643 l 588 643 b 604 663 600 643 606 647 b 546 947 596 872 581 911 b 378 993 521 972 475 993 b 211 946 286 993 239 974 b 151 549 169 901 151 814 b 210 135 151 267 169 178 b 378 86 238 107 281 86 z "},"®":{"ha":379,"x_min":0,"x_max":0,"o":"m 192 629 b 324 665 271 629 304 646 b 367 867 350 692 367 747 b 322 1068 367 988 350 1042 b 192 1103 303 1088 271 1103 b 57 1068 110 1103 78 1088 b 14 867 31 1040 14 986 b 57 665 14 749 31 693 b 192 629 78 646 110 629 z m 192 668 b 88 692 125 668 101 676 b 56 867 67 711 56 761 b 86 1042 56 975 67 1021 b 192 1065 101 1056 125 1065 b 293 1042 256 1065 279 1056 b 325 867 314 1021 325 974 b 294 693 325 761 315 713 b 192 668 279 678 256 668 z m 108 713 l 153 713 b 161 721 157 713 161 717 b 161 821 160 753 160 782 l 194 821 b 214 814 203 821 210 818 b 221 783 218 810 221 799 l 221 718 b 228 713 221 715 224 713 l 275 713 b 283 721 281 713 283 715 l 282 788 b 269 844 282 817 279 833 b 260 856 264 849 260 851 b 272 872 260 861 265 864 b 288 933 281 883 288 900 b 268 1011 288 981 282 997 b 207 1026 257 1022 236 1026 l 108 1026 b 100 1018 101 1026 100 1024 b 100 721 99 944 99 803 b 108 713 100 715 101 713 z m 194 878 l 160 878 l 161 974 l 197 974 b 218 967 207 974 214 971 b 224 929 222 961 224 950 b 214 885 224 900 219 890 b 194 878 211 882 204 878 z "},"™":{"ha":372,"x_min":0,"x_max":0,"o":"m 60 783 l 101 783 b 107 788 104 783 107 785 l 106 1047 l 149 1046 b 153 1050 151 1046 153 1047 l 153 1088 b 149 1090 153 1090 151 1090 l 10 1090 b 6 1088 8 1090 6 1090 l 6 1050 b 8 1046 6 1047 6 1046 l 56 1047 l 54 788 b 60 783 54 785 56 783 z m 172 783 l 204 783 b 210 788 207 783 210 785 l 208 1014 b 211 1018 208 1017 210 1018 b 214 1014 213 1018 214 1017 b 233 788 219 921 228 844 b 239 783 233 785 235 783 l 275 783 b 281 788 279 783 279 785 b 300 1014 286 846 293 911 b 303 1018 300 1017 301 1018 b 306 1014 306 1018 306 1017 l 306 788 b 310 783 306 785 306 783 l 351 783 b 354 788 354 783 354 785 b 354 1086 356 872 356 1006 b 351 1090 354 1089 354 1090 l 290 1090 b 286 1086 288 1090 286 1089 b 267 872 279 1018 274 972 b 264 868 267 869 267 868 b 263 872 263 868 263 869 b 244 1086 257 968 250 1031 b 240 1092 244 1089 243 1092 l 172 1092 b 168 1086 171 1092 168 1089 l 168 788 b 172 783 168 785 171 783 z "},"$":{"ha":586,"x_min":0,"x_max":0,"o":"m 281 -72 l 324 -72 b 344 -51 339 -72 344 -67 l 343 8 b 500 56 421 14 471 28 b 567 303 544 99 567 179 b 510 550 567 433 547 508 b 343 639 481 581 443 603 b 238 696 272 664 251 681 b 211 804 219 717 211 750 b 236 917 211 865 219 900 b 296 935 247 928 268 935 b 356 915 322 936 342 931 b 386 776 369 901 378 868 b 408 757 388 763 393 757 l 546 757 b 565 778 561 758 567 764 b 496 1039 558 924 536 999 b 342 1089 468 1068 417 1085 l 343 1150 b 322 1171 343 1164 338 1171 l 279 1171 b 260 1150 265 1171 260 1165 l 260 1089 b 103 1036 188 1085 135 1068 b 31 800 56 990 31 910 b 92 564 31 693 53 608 b 242 483 122 533 169 513 b 354 426 311 456 339 443 b 385 294 374 401 383 367 b 360 178 386 232 378 196 b 296 163 349 168 328 163 b 239 182 271 163 251 169 b 204 346 222 197 214 238 b 182 367 203 361 197 367 l 44 367 b 25 346 31 367 25 361 b 96 58 32 181 56 99 b 261 7 126 28 185 11 l 261 -51 b 281 -72 261 -67 267 -72 z "},"¥":{"ha":601,"x_min":0,"x_max":0,"o":"m 22 568 b 22 464 21 533 21 500 b 43 444 22 450 28 444 l 196 444 l 211 397 l 213 393 l 42 393 b 22 372 28 393 22 388 b 22 269 21 339 21 304 b 43 249 22 256 28 249 l 215 249 l 215 21 b 236 0 215 7 221 1 b 382 0 278 -1 340 -1 b 403 21 397 1 403 7 l 401 249 l 556 249 b 576 269 569 249 576 254 l 576 372 b 556 393 576 388 571 393 l 407 393 l 425 444 l 556 444 b 576 464 569 444 576 450 l 576 568 b 556 588 576 582 569 588 l 471 588 b 593 1072 524 761 567 939 b 578 1092 594 1086 590 1092 b 438 1092 532 1093 478 1093 b 417 1074 425 1092 419 1086 b 333 692 399 965 364 801 b 304 686 332 682 308 681 b 214 1074 274 797 240 950 b 194 1092 213 1086 206 1090 l 38 1092 b 22 1072 25 1090 19 1086 b 153 588 46 942 99 763 l 42 588 b 22 568 28 588 22 582 z "},"+":{"ha":574,"x_min":0,"x_max":0,"o":"m 19 646 b 19 542 18 610 18 579 b 40 522 19 528 25 522 l 210 522 l 210 299 b 231 278 210 285 215 278 l 344 278 b 365 299 358 278 365 283 l 365 522 l 536 522 b 556 542 550 522 556 528 b 556 646 557 579 557 610 b 536 667 556 660 550 667 l 365 667 l 365 890 b 344 911 365 904 360 911 l 231 911 b 210 890 217 911 210 904 l 210 667 l 40 667 b 19 646 25 667 19 661 z "},"%":{"ha":774,"x_min":0,"x_max":0,"o":"m 181 542 b 313 571 260 542 296 554 b 354 824 342 597 354 625 b 313 1075 354 1021 340 1049 b 181 1106 294 1092 258 1106 b 49 1075 100 1106 65 1090 b 4 824 19 1047 4 1021 b 47 572 4 626 19 599 b 181 542 65 556 100 542 z m 181 657 b 151 664 165 657 157 660 b 140 824 143 672 140 679 b 153 982 140 968 144 975 b 181 990 157 988 167 990 b 208 982 194 990 203 988 b 219 824 215 976 219 968 b 208 664 219 679 215 671 b 181 657 203 660 194 657 z m 685 1090 l 600 1090 b 576 1076 589 1090 582 1086 l 82 17 b 93 0 78 6 81 0 l 176 0 b 200 15 188 0 196 6 l 694 1075 b 685 1090 700 1086 697 1090 z m 594 -6 b 726 24 674 -6 710 7 b 768 276 756 50 768 78 b 726 528 768 474 754 501 b 594 558 708 544 672 558 b 463 528 514 558 479 543 b 418 276 433 500 418 474 b 461 25 418 79 433 51 b 594 -6 479 8 514 -6 z m 594 110 b 565 117 579 110 571 113 b 554 276 557 125 554 132 b 567 435 554 421 558 428 b 594 443 571 440 581 443 b 622 435 608 443 617 440 b 633 276 629 429 633 421 b 622 117 633 132 629 124 b 594 110 617 113 608 110 z "},"̈":{"ha":0,"x_min":0,"x_max":0,"o":"m 197 990 l 296 990 b 317 1010 310 990 317 996 l 317 1125 b 296 1144 317 1139 311 1144 l 197 1144 b 178 1125 183 1144 178 1139 l 178 1010 b 197 990 178 996 183 990 z m 24 990 l 119 990 b 140 1010 133 990 140 996 l 140 1125 b 119 1144 140 1139 135 1144 l 24 1144 b 3 1125 8 1144 3 1139 l 3 1010 b 24 990 3 996 8 990 z "},"̇":{"ha":0,"x_min":0,"x_max":0,"o":"m 128 1135 l 26 1135 b 6 1114 11 1135 6 1129 l 6 1013 b 26 992 6 997 11 992 l 128 992 b 147 1013 142 992 147 997 l 147 1114 b 128 1135 147 1129 142 1135 z "},"̀":{"ha":0,"x_min":0,"x_max":0,"o":"m 211 996 l 144 1163 b 122 1178 140 1174 133 1178 l 14 1178 b 4 1161 0 1178 -3 1174 l 89 993 b 114 978 94 983 101 978 l 199 978 b 211 996 213 978 215 983 z "},"́":{"ha":0,"x_min":0,"x_max":0,"o":"m 10 979 l 94 979 b 119 993 106 979 113 983 l 210 1161 b 200 1178 217 1174 214 1178 l 94 1178 b 71 1163 83 1178 76 1174 l -1 996 b 10 979 -7 983 -3 979 z "},"̋":{"ha":0,"x_min":0,"x_max":0,"o":"m 21 978 l 104 978 b 128 993 115 978 122 982 l 196 1161 b 183 1178 200 1172 197 1178 l 82 1178 b 60 1161 69 1178 64 1174 l 7 996 b 21 978 4 983 7 978 z m 168 978 l 253 978 b 278 993 265 978 272 982 l 360 1161 b 350 1178 365 1174 363 1178 l 244 1178 b 222 1163 233 1178 226 1174 l 157 996 b 168 978 151 983 156 978 z "},"̂":{"ha":0,"x_min":0,"x_max":0,"o":"m 96 1163 l 10 993 b 19 978 3 982 6 978 l 111 978 b 135 993 122 978 129 982 l 171 1065 l 207 993 b 232 978 213 982 219 978 l 322 978 b 332 994 335 978 339 982 l 247 1163 b 222 1178 242 1174 235 1178 l 121 1178 b 96 1163 108 1178 101 1174 z "},"̌":{"ha":0,"x_min":0,"x_max":0,"o":"m 10 1163 l 96 993 b 121 978 101 982 108 978 l 222 978 b 247 993 235 978 242 982 l 332 1161 b 322 1178 339 1174 335 1178 l 232 1178 b 207 1163 219 1178 213 1174 l 171 1090 l 135 1163 b 111 1178 129 1174 122 1178 l 19 1178 b 10 1163 6 1178 3 1174 z "},"̆":{"ha":0,"x_min":0,"x_max":0,"o":"m 160 967 b 310 1093 239 967 296 1014 b 292 1114 311 1107 307 1114 l 204 1114 b 183 1093 189 1114 183 1108 b 160 1061 181 1069 172 1061 b 136 1093 147 1061 139 1069 b 115 1114 135 1107 129 1114 l 25 1114 b 7 1093 11 1114 6 1108 b 160 967 21 1014 72 967 z "},"̊":{"ha":0,"x_min":0,"x_max":0,"o":"m 138 957 b 268 1089 217 957 268 1011 b 138 1221 268 1165 217 1221 b 6 1089 57 1221 6 1165 b 138 957 6 1013 57 957 z m 138 1039 b 104 1089 117 1039 106 1054 b 138 1138 106 1122 117 1138 b 169 1089 157 1138 169 1122 b 138 1039 169 1054 157 1039 z "},"̃":{"ha":0,"x_min":0,"x_max":0,"o":"m 225 972 b 293 999 253 972 276 982 b 304 1029 301 1008 304 1017 l 304 1107 b 292 1113 304 1119 300 1121 b 228 1086 268 1092 256 1086 b 167 1103 208 1086 189 1094 b 88 1122 144 1113 118 1122 b 17 1096 60 1122 35 1113 b 6 1065 8 1086 6 1078 l 6 986 b 19 981 6 974 10 971 b 82 1008 44 1004 58 1008 b 146 992 104 1008 124 1000 b 225 972 169 982 194 972 z "},"̄":{"ha":0,"x_min":0,"x_max":0,"o":"m 292 1099 l 15 1099 b -6 1079 1 1099 -6 1093 l -6 1011 b 15 990 -6 996 1 990 l 292 990 b 313 1011 307 990 313 996 l 313 1079 b 292 1099 313 1093 307 1099 z "},"̒":{"ha":0,"x_min":0,"x_max":0,"o":"m 118 1269 l 60 1269 b 38 1253 47 1269 40 1265 l -11 1115 b -18 1075 -15 1101 -18 1090 l -18 996 b 3 975 -18 982 -12 975 l 113 975 b 133 996 126 975 133 981 l 133 1099 b 113 1119 133 1113 128 1119 l 81 1119 l 131 1251 b 118 1269 135 1264 131 1269 z "},"̦":{"ha":0,"x_min":0,"x_max":0,"o":"m 24 -349 l 82 -349 b 104 -332 94 -349 101 -344 l 153 -194 b 160 -154 157 -181 160 -169 l 160 -75 b 139 -54 160 -61 154 -54 l 29 -54 b 8 -75 15 -54 8 -60 l 8 -178 b 29 -199 8 -192 14 -199 l 61 -199 l 11 -331 b 24 -349 7 -343 11 -349 z "},"̧":{"ha":0,"x_min":0,"x_max":0,"o":"m 158 17 l 72 17 b 50 0 61 17 54 11 l -14 -192 b -1 -210 -18 -204 -14 -210 l 100 -210 b 122 -193 113 -210 119 -204 l 172 -1 b 158 17 175 11 171 17 z "},"̨":{"ha":0,"x_min":0,"x_max":0,"o":"m 108 -200 l 147 -200 b 167 -179 161 -200 167 -194 l 167 -114 b 146 -93 167 -99 161 -93 l 128 -93 b 103 -71 110 -93 103 -86 b 146 0 103 -47 115 -29 l 125 44 b -18 -100 46 8 -18 -22 b 108 -200 -18 -171 36 -200 z "},"̵":{"ha":0,"x_min":0,"x_max":0,"o":"m 26 383 l 283 383 b 303 404 297 383 303 389 l 303 489 b 283 510 303 503 297 510 l 26 510 b 6 489 11 510 6 504 l 6 404 b 26 383 6 389 11 383 z "},"̷":{"ha":0,"x_min":0,"x_max":0,"o":"m -15 340 l -15 240 b -1 233 -15 226 -11 225 l 229 417 b 243 444 239 425 243 432 l 243 543 b 228 550 243 557 239 558 l -3 368 b -15 340 -12 360 -15 351 z "},"̸":{"ha":0,"x_min":0,"x_max":0,"o":"m 275 1124 l 219 1124 b 200 1107 208 1124 203 1119 l -36 -121 b -22 -140 -39 -135 -35 -140 l 33 -140 b 54 -124 46 -140 51 -135 l 290 1106 b 275 1124 293 1118 288 1124 z "},"¨":{"ha":315,"x_min":0,"x_max":0,"o":"m 197 990 l 296 990 b 317 1010 310 990 317 996 l 317 1125 b 296 1144 317 1139 311 1144 l 197 1144 b 178 1125 183 1144 178 1139 l 178 1010 b 197 990 178 996 183 990 z m 24 990 l 119 990 b 140 1010 133 990 140 996 l 140 1125 b 119 1144 140 1139 135 1144 l 24 1144 b 3 1125 8 1144 3 1139 l 3 1010 b 24 990 3 996 8 990 z "},"˙":{"ha":153,"x_min":0,"x_max":0,"o":"m 128 1135 l 26 1135 b 6 1114 11 1135 6 1129 l 6 1013 b 26 992 6 997 11 992 l 128 992 b 147 1013 142 992 147 997 l 147 1114 b 128 1135 147 1129 142 1135 z "},"`":{"ha":218,"x_min":0,"x_max":0,"o":"m 211 996 l 144 1163 b 122 1178 140 1174 133 1178 l 14 1178 b 4 1161 0 1178 -3 1174 l 89 993 b 114 978 94 983 101 978 l 199 978 b 211 996 213 978 215 983 z "},"´":{"ha":200,"x_min":0,"x_max":0,"o":"m 10 979 l 94 979 b 119 993 106 979 113 983 l 210 1161 b 200 1178 217 1174 214 1178 l 94 1178 b 71 1163 83 1178 76 1174 l -1 996 b 10 979 -7 983 -3 979 z "},"˝":{"ha":368,"x_min":0,"x_max":0,"o":"m 21 978 l 104 978 b 128 993 115 978 122 982 l 196 1161 b 183 1178 200 1172 197 1178 l 82 1178 b 60 1161 69 1178 64 1174 l 7 996 b 21 978 4 983 7 978 z m 168 978 l 253 978 b 278 993 265 978 272 982 l 360 1161 b 350 1178 365 1174 363 1178 l 244 1178 b 222 1163 233 1178 226 1174 l 157 996 b 168 978 151 983 156 978 z "},"ˆ":{"ha":340,"x_min":0,"x_max":0,"o":"m 96 1163 l 10 993 b 19 978 3 982 6 978 l 111 978 b 135 993 122 978 129 982 l 171 1065 l 207 993 b 232 978 213 982 219 978 l 322 978 b 332 994 335 978 339 982 l 247 1163 b 222 1178 242 1174 235 1178 l 121 1178 b 96 1163 108 1178 101 1174 z "},"ˇ":{"ha":340,"x_min":0,"x_max":0,"o":"m 10 1163 l 96 993 b 121 978 101 982 108 978 l 222 978 b 247 993 235 978 242 982 l 332 1161 b 322 1178 339 1174 335 1178 l 232 1178 b 207 1163 219 1178 213 1174 l 171 1090 l 135 1163 b 111 1178 129 1174 122 1178 l 19 1178 b 10 1163 6 1178 3 1174 z "},"˘":{"ha":315,"x_min":0,"x_max":0,"o":"m 160 967 b 310 1093 239 967 296 1014 b 292 1114 311 1107 307 1114 l 204 1114 b 183 1093 189 1114 183 1108 b 160 1061 181 1069 172 1061 b 136 1093 147 1061 139 1069 b 115 1114 135 1107 129 1114 l 25 1114 b 7 1093 11 1114 6 1108 b 160 967 21 1014 72 967 z "},"˚":{"ha":272,"x_min":0,"x_max":0,"o":"m 138 957 b 268 1089 217 957 268 1011 b 138 1221 268 1165 217 1221 b 6 1089 57 1221 6 1165 b 138 957 6 1013 57 957 z m 138 1039 b 104 1089 117 1039 106 1054 b 138 1138 106 1122 117 1138 b 169 1089 157 1138 169 1122 b 138 1039 169 1054 157 1039 z "},"˜":{"ha":308,"x_min":0,"x_max":0,"o":"m 225 972 b 293 999 253 972 276 982 b 304 1029 301 1008 304 1017 l 304 1107 b 292 1113 304 1119 300 1121 b 228 1086 268 1092 256 1086 b 167 1103 208 1086 189 1094 b 88 1122 144 1113 118 1122 b 17 1096 60 1122 35 1113 b 6 1065 8 1086 6 1078 l 6 986 b 19 981 6 974 10 971 b 82 1008 44 1004 58 1008 b 146 992 104 1008 124 1000 b 225 972 169 982 194 972 z "},"¯":{"ha":299,"x_min":0,"x_max":0,"o":"m 292 1099 l 15 1099 b -6 1079 1 1099 -6 1093 l -6 1011 b 15 990 -6 996 1 990 l 292 990 b 313 1011 307 990 313 996 l 313 1079 b 292 1099 313 1093 307 1099 z "},"¸":{"ha":181,"x_min":0,"x_max":0,"o":"m 158 17 l 72 17 b 50 0 61 17 54 11 l -14 -192 b -1 -210 -18 -204 -14 -210 l 100 -210 b 122 -193 113 -210 119 -204 l 172 -1 b 158 17 175 11 171 17 z "},"˛":{"ha":158,"x_min":0,"x_max":0,"o":"m 108 -200 l 147 -200 b 167 -179 161 -200 167 -194 l 167 -114 b 146 -93 167 -99 161 -93 l 128 -93 b 103 -71 110 -93 103 -86 b 146 0 103 -47 115 -29 l 125 44 b -18 -100 46 8 -18 -22 b 108 -200 -18 -171 36 -200 z "},"⁄":{"ha":56,"x_min":0,"x_max":0,"o":"m 325 1090 l 240 1090 b 217 1076 229 1090 222 1086 l -278 17 b -267 0 -282 6 -279 0 l -183 0 b -160 15 -172 0 -164 6 l 335 1075 b 325 1090 340 1086 338 1090 z "}}}
